<?xml version="1.0" encoding="UTF-8" standalone="no"?>
<svg width="205px" height="124px" viewBox="0 0 205 124" version="1.1" xmlns="http://www.w3.org/2000/svg" xmlns:xlink="http://www.w3.org/1999/xlink" xmlns:sketch="http://www.bohemiancoding.com/sketch/ns">
    <!-- Generator: Sketch 3.3.1 (12005) - http://www.bohemiancoding.com/sketch -->
    <title>Imported Layers</title>
    <desc>Created with Sketch.</desc>
    <defs></defs>
    <g id="Page-1" stroke="none" stroke-width="1" fill="none" fill-rule="evenodd" sketch:type="MSPage">
        <g id="Imported-Layers" sketch:type="MSLayerGroup" fill="#E67067">
            <path d="M0.879648829,0.807712707 C0.242023411,0.413790055 0.82,1.46470718 0.364749164,0.656994475 C0.601287625,0.545325967 0.832341137,0.504906077 0.879648829,0.807712707" id="Fill-1" sketch:type="MSShapeGroup"></path>
            <path d="M6.14382943,117.604751 C7.4567893,117.048464 8.79511706,117.314276 10.1615552,117.628729 C11.5307358,117.910983 12.9259699,118.268597 14.2759532,117.966475 C14.5851672,117.945238 14.0791806,118.805017 14.7867391,118.702254 C17.4435117,117.830829 21.2384114,118.985878 24.2654181,120.107359 L24.0638462,120.334807 C24.6411371,120.557459 25.4014883,119.808663 26.0151171,119.931978 C26.0130602,120.092972 25.8053177,120.15326 25.9390134,120.378652 C26.1186455,119.899094 27.0737124,120.194365 27.3500167,119.841547 C27.5892977,120.040221 27.5522742,120.423182 27.8649164,120.646519 L28.2365217,120.106674 C29.2457525,118.849547 30.6348161,120.231359 31.9813712,119.543536 C31.9189799,119.671646 31.7873411,119.772354 31.8956689,119.897039 C34.0409699,119.096862 36.7196823,119.07768 39.0706689,118.537834 C38.9986789,118.740619 38.9479431,119.103028 39.1131773,119.307867 C39.1700836,118.728972 39.8838127,118.483713 40.4994983,118.278873 C40.8704181,118.822829 41.5066722,117.606122 42.2841639,117.790409 L42.2450836,117.933591 C42.6729097,117.214939 43.1171906,118.136376 43.4113211,117.316331 L43.8480602,117.712994 C43.9090803,116.850475 44.718796,117.959624 45.071204,117.440331 L45.0156689,117.274541 C45.3783612,116.97105 45.7067726,117.34579 46.0488963,117.092309 L46.1112876,117.17589 C46.9402007,116.711403 47.5956522,116.992972 47.3652843,116.370232 C47.8431605,116.773061 46.5884783,116.873083 47.3063211,117.449238 C48.0467893,117.01558 48.8078261,116.624398 49.5064716,116.196221 L49.6833612,116.088663 L49.8691639,115.998232 C51.8567726,115.064464 53.8820903,114.327315 55.7723411,113.310652 C56.2070234,113.382586 56.4463043,113.349017 56.6348495,113.531249 C56.85699,113.285304 57.613913,112.860552 57.6804181,112.417989 C57.5974582,112.482387 58.0232274,112.604331 58.1829766,112.546785 C58.8034615,112.461834 58.3351839,111.615072 59.0180602,111.541083 C58.9063043,111.820597 58.9440134,112.039823 59.1483278,112.204243 C59.325903,111.489702 59.9381605,111.140309 60.3598161,110.653215 C60.3447324,110.798453 60.2583445,110.93821 60.3968395,111.093039 C60.6285786,110.244221 61.4883445,110.454541 61.7331104,109.78316 L61.7927592,110.222983 C62.8479264,109.971558 61.5178261,109.424862 62.3419398,109.11726 C62.2630936,109.333061 62.4139298,109.404309 62.4845485,109.544751 C62.5798495,109.046696 62.8575251,108.598652 63.1955351,108.219801 C63.526689,107.834785 63.9072074,107.501834 64.0765552,107.131204 C64.0827258,107.201768 64.1643144,107.265481 64.1643144,107.265481 C64.422107,106.93116 64.7388629,106.64274 65.0453344,106.328287 C65.351806,106.014519 65.6041137,105.636354 65.7837458,105.193105 C66.1272408,105.039646 66.4385117,105.864486 66.8985619,105.07253 C66.2732776,104.634762 67.5252174,103.649613 66.5166722,103.57768 C67.072709,103.070033 67.8988796,102.178055 67.9434448,101.631359 C68.0229766,102.067757 68.9492475,101.769746 68.6756856,102.349326 C68.6756856,102.349326 68.8395485,102.302055 69.0034114,102.25547 C69.1611037,102.202718 69.318796,102.149967 69.318796,102.149967 C69.5642475,102.371249 68.9794147,102.544575 69.399699,102.601436 C69.5416221,102.295204 69.7095987,101.299779 69.9577926,101.098365 C69.8083278,100.340663 69.2296656,99.4904751 69.4936288,98.6005525 C69.6163545,99.1273812 70.3643645,98.6704309 70.3808194,99.0047514 C70.3808194,99.0047514 70.1545652,98.5615028 69.9289967,98.1189392 C69.6965719,97.6935028 69.4641472,97.2687514 69.4641472,97.2687514 C69.5224247,96.9673149 70.0572074,97.3954917 69.9975585,96.9056575 C69.7980435,96.8666077 69.7363378,96.6446409 69.6184114,96.4692597 C69.6760033,96.4267845 69.7226254,96.1116464 69.8487793,95.8170608 C69.9577926,95.5169945 70.1483946,95.2333702 70.5295987,95.2552928 C70.8497826,95.1902099 70.5638796,95.7896575 70.9046321,95.5156243 C71.0273579,94.9442652 70.8065886,94.868221 70.8991472,94.298232 L70.9992475,94.3078232 C71.1795652,93.9467845 70.8895485,93.1472928 70.4055017,93.4816133 C70.3335117,93.7323536 70.8676087,93.4624309 70.5823913,93.8042873 C70.2094147,93.4644862 70.1977592,92.810232 70.2532943,92.2546298 C70.3485953,92.4587845 70.5501672,92.4635801 70.7496823,92.569768 C70.2752341,91.735337 70.1586789,90.9372155 69.9564214,90.098674 C69.5985284,90.065105 70.5947324,90.4432707 70.395903,90.5576796 C70.9471405,89.486895 69.7795318,88.3400663 70.4493813,87.4398674 C70.5186288,87.5844199 69.9454515,87.5392044 70.0455518,87.5255028 C70.0743478,87.0123757 70.5878763,87.0034696 70.3712207,86.6780552 C70.6708361,86.6239337 70.2491806,86.2587845 70.1230268,85.9251492 C69.8830602,85.7696354 70.262893,85.8203315 70.323913,86.1197127 C70.029097,85.6449503 69.3455351,83.8315359 69.5244816,82.6888177 C69.333194,82.7449945 68.660602,82.2058343 68.6208361,81.988663 L69.1000836,81.9564641 C69.2084114,81.8201326 69.1432776,81.6132376 69.1103679,81.4851271 C69.0664883,81.3302983 69.0136957,81.161768 69.2008696,81.0816133 C68.8237793,80.9254144 69.1652174,81.3720884 69.3894147,81.7399779 C69.6465217,82.1654144 69.8974582,82.6024972 69.6019565,82.2942099 C69.7699331,82.1599337 69.5299666,81.9516685 69.3263378,81.7995801 C69.1213378,81.6351602 68.9670736,81.5577459 69.2906856,81.525547 C69.2296656,81.3131713 68.9931271,81.1412155 68.8354348,80.9363757 C68.6736288,80.7390718 68.5687291,80.5294365 68.6887124,80.228 C68.6667726,80.3807735 69.4435786,80.3773481 69.2653177,80.0032928 C68.9279933,79.3572597 68.9821572,79.8936796 68.6311204,79.4127514 L68.2910535,79.1558453 C67.8632274,79.3230055 68.0586288,78.5440663 67.7144482,79.0030718 C68.0154348,78.7598674 67.0445987,78.1624751 67.7562709,77.888442 L68.3349331,77.7116906 C68.1525585,77.4397127 67.5423579,77.524663 67.2009197,77.4273812 C67.2304013,77.3643536 67.2934783,77.2341878 67.3867224,77.202674 C66.5557525,77.5924862 67.0692809,76.4963536 66.2623077,76.5093702 C66.2054013,75.7681105 65.4484783,75.0145193 65.7439799,74.4486409 C65.2235953,74.1492597 64.6888127,73.9245525 64.5331773,73.3141436 C64.6689298,73.3682652 64.7793144,73.4915801 64.9630602,73.4134807 C64.9870569,72.9496796 64.7333779,73.0010608 64.4248495,72.7927956 C64.5887124,72.779779 64.4591304,71.8638232 64.4769565,71.3335691 C63.9483445,71.0506298 63.645301,71.4794917 63.3655686,71.6069171 C63.8324749,70.6957569 62.04301,70.721105 62.3693645,69.753768 C62.5743645,69.8304972 63.168796,70.1312486 63.1043478,69.6373039 C63.5650836,68.7090166 61.9833612,69.2344751 61.8743478,68.348663 L61.3834448,68.9460552 C61.5507358,68.3918232 60.3522742,68.2822099 61.0138963,67.8910276 C60.6416054,67.8430718 60.6628595,67.0017901 60.131505,67.5114917 C59.851087,66.1104972 57.9244983,65.2767514 58.4695652,63.8387624 C58.263194,63.7675138 58.0698495,63.3297459 57.8346823,63.6380331 C57.7112709,64.1292376 58.329699,63.7928619 58.182291,64.0552486 C58.0629933,63.9387845 57.8840468,64.0346961 57.7949164,64.0840221 C57.67699,63.6661215 57.5151839,63.3893481 58.2302843,63.3050829 C58.0170569,62.3260994 56.6794147,63.3667403 56.1857692,62.3089724 C56.4524749,62.1575691 56.4874415,62.0184972 56.2406187,61.7903646 L55.4418729,61.6300552 C55.0716388,60.9853923 55.7085786,60.8689282 56.0932107,60.528442 C55.7778261,60.2783867 55.4802676,59.8961105 55.07301,60.0036685 L55.2588127,59.2247293 C55.1258027,59.7912928 54.8124749,59.1747182 54.596505,59.1144309 L54.8124749,59.1754033 C54.931087,58.9808398 54.5347993,58.717768 54.3366555,58.5834917 C54.1295987,58.8294365 54.3311706,59.2672044 54.4237291,59.52 C54.1213712,59.5110939 53.9602508,59.2384309 53.585903,59.206232 C54.0267559,58.949326 53.4453512,58.4855249 53.2835452,58.2128619 C53.1347659,57.8675801 52.6795151,58.1964199 52.6260368,58.1046188 C52.8193813,57.9271823 52.2804849,57.6298564 52.7391639,57.6051934 C52.881087,57.6449282 52.7268227,57.9833591 53.0312375,57.9895249 C53.0250669,57.6839779 53.3911873,57.4065193 52.8186957,57.2503204 C52.3860702,57.1324862 52.1282776,57.9676022 51.908194,57.2311381 C52.1241639,57.2893702 52.2989967,57.1838674 52.5286789,57.1742762 L52.2941973,56.5076906 L51.9301338,56.7851492 C51.9596154,56.6426519 52.0295485,56.6632044 52.0494314,56.5912707 C51.555786,56.759116 51.2781104,55.9308508 50.7714381,56.1740552 C50.5184448,55.9548287 50.5520401,55.4396464 50.3833779,55.1662983 L50.453311,55.1854807 C50.4005184,54.716884 49.9322408,54.4428508 49.4824749,54.4051713 L49.5695485,54.3524199 C49.4557358,54.1708729 49.0676756,53.8454586 48.6905853,53.8269613 C48.5925418,53.1987403 49.8623077,52.5444862 49.0375084,52.4855691 C48.6631605,52.0902762 47.8445318,52.4095249 47.7718562,52.7671381 C47.3529431,51.8326851 46.0626087,51.509326 45.9748495,50.3672928 C45.743796,50.3885304 45.7177425,50.5317127 45.4421237,50.3912707 C44.6070401,49.2129282 43.0088629,48.5257901 42.8861371,47.0843757 C43.3105351,47.2577017 43.240602,46.7939006 43.4257191,46.6096133 C42.8916221,46.6370166 43.4558863,46.0183867 42.8566555,46.4068287 C42.5776087,46.7130608 42.406204,46.8254144 42.559097,47.2337238 C41.8138294,46.7603315 40.92801,45.8114917 40.8861873,45.1997127 C40.9081271,45.5045746 40.690786,45.4566188 40.4727592,45.4045525 C40.9958863,44.9996685 40.6393645,44.4680442 40.1395485,44.2823867 L39.8001672,44.5105193 L39.8872408,44.0015028 C39.6671572,43.9562873 39.1351171,44.433105 39.0898662,43.8247514 C39.1858528,43.7007514 39.2818395,43.5719558 39.3051505,43.4301436 C38.7258027,43.2972376 37.844097,43.1773481 37.7206856,42.5552928 L37.8434114,41.8318453 C37.639097,41.7105856 37.119398,41.6749613 37.2736622,42.0839558 C36.9,41.1775912 36.5181104,40.7261215 36.6833445,40.1650387 C34.6977926,39.886895 33.0783612,38.2810608 31.855903,36.9143204 L32.1088963,36.7416796 C31.9662876,36.1929282 31.5542308,36.9280221 31.4630435,36.5368398 C31.7797993,36.4498343 31.6461037,35.8325746 32.1685452,35.8620331 C31.9018395,35.1365304 31.1606856,35.5790939 30.7431438,35.3475359 C30.4133612,35.5749834 31.1812542,35.4331713 30.7616555,35.7215912 C30.6073913,35.7633812 30.2981773,34.811116 29.7942475,35.1543425 C29.8374415,34.8645525 30.2474415,34.6521768 30.4867224,34.5500994 L29.9773077,34.4480221 C30.1034615,33.5827624 31.7112375,34.4233591 31.9354348,33.4272486 L31.5878261,33.2100773 C31.7667726,32.5010166 32.8329097,33.4615028 32.2816722,32.6017238 C31.766087,32.5010166 30.888495,32.8476685 30.9721405,33.306674 C30.2200167,32.7839558 29.6646656,34.0136796 29.0181271,33.2922873 C29.0818896,32.8565746 29.6228428,33.7828066 29.8429264,33.3039337 C29.8641806,32.6407735 29.0071572,32.843558 28.8419231,32.4373039 C28.9982441,32.9161768 28.3016555,33.0716906 28.0198662,32.9415249 C27.8731438,32.3941436 28.6458361,32.768884 28.1988127,32.2324641 C27.8724582,32.3941436 27.2389465,32.1221657 27.4583445,32.6839337 C26.7281605,33.0566188 27.1004515,32.0173481 26.4024916,32.1790276 C26.6301171,31.6302762 27.8121237,31.7864751 27.4645151,31.0513812 C27.1738127,31.512442 26.2838796,30.8944972 26.0144314,31.7364641 C25.9102174,31.4165304 26.1830936,31.099337 26.5684114,31.0232928 C26.4943645,30.4896133 25.1478094,30.9746519 25.7909197,30.1306298 L25.3034448,30.4108287 C25.333612,30.1909171 25.2911037,29.9614144 25.3425251,29.5990055 C25.0806187,29.3249724 23.9630602,29.2612597 24.5636622,28.7042873 C24.4176254,28.6796243 23.8300502,28.0479779 23.6675585,28.6844199 C23.8060535,29.3057901 24.3991137,28.8214365 24.0700167,29.5763978 C24.2427926,28.8659669 23.4632441,29.0913591 23.0964381,29.0221657 L23.2829264,28.7618343 C23.0648997,28.7200442 22.8105351,28.3733923 22.4882943,28.536442 C22.7166054,28.5056133 22.8160201,28.3014586 22.7645987,28.1432044 L22.2887793,28.3507845 C21.5860201,27.9959116 22.7577425,27.6239116 22.1406856,27.2114917 L22.7975084,27.3341215 C22.6555853,27.3060331 22.7933946,26.8114033 22.4396154,26.6730166 C22.0337291,26.891558 21.4831773,27.0881768 21.1602508,27.2498564 C20.7331104,27.0991381 21.3769064,26.767558 20.7721906,26.8059227 L21.5208863,26.7997569 C21.6792642,26.7531713 21.7766221,26.0297238 21.3762207,25.6536133 C21.0183278,25.5172818 20.1832441,25.5905856 20.4115552,26.1489282 C20.2092977,25.9605304 20.1208528,25.5001547 20.5013712,25.4241105 C19.9487625,25.0966409 20.2291806,25.8187182 19.6532609,25.6378564 C19.6998829,25.2747624 19.5017391,24.4978785 19.5031104,23.9039116 L20.419097,23.7703204 L20.1558194,23.5045083 C20.9154849,23.4209282 20.2956856,23.0105635 20.924398,22.7570829 C20.8105853,22.5077127 20.4396656,22.4433149 20.1503344,22.386453 C19.9905853,23.6216575 18.6008361,22.7762652 18.1222742,23.5791823 C17.2165719,23.0448177 19.2028094,21.5499669 17.4455686,21.8274254 C17.4064883,22.1185856 16.5631773,22.2645083 17.2083445,22.5248398 C16.8209699,22.0110276 16.2635619,22.8783425 15.9865719,22.0870718 C16.6461371,22.2055912 16.1984281,21.0101215 17.1521237,21.1807072 C16.9032441,21.3595138 17.3146154,21.6561547 17.4633946,21.6801326 C17.5168729,21.2485304 18.1380435,21.0621878 17.6690803,20.608663 C17.3228428,20.3949171 16.9183278,20.0283978 16.6461371,20.4223204 C16.2971572,20.8080221 17.1219565,20.8052818 16.5727759,21.006011 C15.8775585,20.5860552 16.3321237,19.9249503 15.4565886,20.3592928 C15.865903,20.6566188 15.5841137,21.1279558 15.3297492,21.378011 L14.7613712,21.130011 L15.0822408,20.9601105 C14.5831104,20.1352707 14.4487291,21.2211271 13.8611538,20.5291934 L14.0291304,19.7440884 C14.5913378,19.4693702 14.7963378,20.8415912 15.3441472,20.0414144 C14.9478595,19.6063867 14.4692977,19.8221878 14.2416722,19.2597348 C14.387709,19.285768 14.5248328,19.3857901 14.6722408,19.4083978 C14.5426589,19.2398674 15.2701003,18.1800442 14.1504849,18.1355138 C13.6376421,18.0443978 13.8316722,18.302674 13.5766221,18.5527293 C12.8203846,17.9786298 12.3651338,18.0471381 11.8858863,17.6689724 C12.4597492,17.2497017 11.1550167,16.880442 12.1347659,16.8256354 C12.0764883,17.3339669 13.0905184,18.2471823 13.792592,17.9978122 C14.1175753,17.162011 14.2471572,18.5945193 14.9745987,18.1300331 C14.4405017,17.5922431 15.031505,17.0284199 15.3139799,16.558453 C15.1878261,16.3858122 14.884097,16.4070497 14.7360033,16.3810166 C14.3232609,16.6831381 14.5275753,16.8674254 14.1806522,17.252442 C13.6657525,16.5673591 12.8793478,16.211116 12.2053846,16.2433149 C12.1724749,15.8692597 12.5838462,15.5671381 12.8587793,15.7630718 C12.0271237,15.178011 11.2976254,14.3846851 10.7073077,13.6194475 C10.5914381,14.6388508 9.80023411,13.028221 9.63705686,13.8119558 C9.88250836,14.2976796 9.79954849,15.0231823 9.34155518,15.0971713 C9.14546823,14.8395801 9.59591973,14.8436906 9.61991639,14.6244641 C9.01588629,14.6710497 9.65419732,13.6680884 8.87807692,13.9071823 C9.72687291,14.3449503 9.69533445,13.3036243 10.2602843,12.9521768 C9.52941472,12.7603536 10.5948662,12.6390939 10.1190468,12.1889945 C9.39297659,11.9937459 8.60931438,11.6429834 7.97854515,11.242895 C7.7241806,10.1673149 6.28438127,9.63569061 5.66458194,9.09379006 C5.57133779,8.56216575 6.2816388,8.22990055 6.02453177,7.81816575 C5.61384615,7.45507182 5.78730769,8.67040884 5.42050167,7.87160221 L5.57613712,7.81953591 C5.28200669,7.77500552 4.82058528,6.44320442 3.93339465,7.04470718 L4.65397993,6.63776796 C4.59158863,6.48293923 4.36533445,6.51924862 4.21655518,6.49458564 C4.38658863,6.30344751 4.41538462,6.01160221 4.71088629,6.05681768 C4.71225753,5.31761326 3.87923077,5.40256354 3.46374582,5.04974586 L3.40546823,5.62932597 C2.47028428,5.26486188 2.32561873,4.50030939 1.55018395,4.01116022 L1.87859532,3.69259669 L1.29856187,3.53023204 C1.69347826,3.29387845 1.52344482,2.74992265 1.06408027,2.83076243 L2.85011706,2.95407735 C2.95364548,3.41445304 2.16381271,3.07259669 2.03971572,3.5679116 C1.92727425,3.99540331 2.62454849,4.47222099 3.02220736,4.24134807 C2.82063545,3.98718232 2.74110368,4.04952486 2.44765886,4.00225414 C2.80006689,3.46377901 3.1408194,3.8118011 3.60429766,3.66450829 C3.46374582,3.56928177 3.4191806,3.26510497 3.25668896,3.38841989 C3.70919732,3.38362431 3.98687291,3.57407735 4.40098662,3.93648619 C3.95944816,3.86523757 4.2830602,4.36192265 4.0561204,4.39891713 C4.46817726,4.01869613 4.97073579,4.24888398 5.36222408,4.82572376 C5.27789298,5.62864088 6.58056856,5.3881768 7.03513378,6.05544751 C6.41670569,6.25138122 5.80856187,6.30618785 5.30188963,6.14861878 C5.4691806,6.69257459 5.71600334,6.51034254 5.8826087,7.05703867 C6.34471572,6.91111602 6.91103679,6.55418785 7.55757525,6.80629834 L7.29772575,7.13513812 C7.86953177,7.37902762 8.29255853,6.92755801 8.75672241,7.51946961 C9.54586957,8.54092818 10.5029933,9.43701657 11.1728428,10.1426519 L10.9143645,10.4701215 C11.918796,10.1933481 12.4501505,11.4696575 13.2516388,11.6813481 C13.8741806,12.8254365 15.4764716,13.2488177 15.4421906,14.2058785 C17.2419398,15.4862983 18.8428595,16.5824309 20.3635619,18.2697901 L19.6676589,18.4410608 C20.2696321,18.4033812 19.6148662,18.8754033 19.9624749,19.087779 C19.971388,18.4211934 20.7968729,19.0192707 21.2576087,18.9487072 C21.6566388,19.9859227 22.9380602,20.526453 23.8773579,20.8463867 L23.6099666,21.1690608 C24.8056856,21.2409945 25.0991304,22.4864751 25.8101171,23.3688619 C25.7813211,23.5826077 25.6510535,24.0053039 25.9225585,24.2074033 C26.831689,24.1567072 27.0257191,24.4149834 27.960903,24.7451934 C28.428495,25.2041989 29.0613211,26.0763094 29.3485953,26.7298785 C31.7674582,27.7958674 33.1105853,30.0134807 35.317592,31.4363978 L35.0975084,31.9125304 C37.5904181,32.951116 39.0405017,35.8099669 40.8971572,36.9691271 L40.1498328,37.4020994 C40.4268227,38.0570387 41.3599498,38.3427182 41.6719064,37.8110939 C41.9461538,38.4721989 43.1151338,38.7393812 42.9073913,39.5210608 C43.2652843,40.1218785 43.7637291,39.8608619 44.236806,40.1951823 C44.9484783,41.4036685 45.3413378,41.7318232 46.3368562,42.5662541 L46.1579097,42.2970166 C45.9261706,42.3189392 45.6567224,42.5532376 45.8370401,42.8238453 C46.3347993,43.0170387 46.8778094,44.2700552 47.2850669,43.2403757 C47.8033946,44.6338343 49.8074582,45.292884 50.1392977,46.8048619 C50.2654515,46.5363094 50.5321572,46.7514254 50.7652676,46.7329282 C51.5921237,47.6187403 52.0185786,48.947116 53.0120401,49.3574807 C53.0380936,49.5924641 52.4608027,49.4369503 52.7672742,49.8240221 C53.0387793,49.9726851 53.0380936,49.5924641 53.3918729,49.7582541 C55.0860368,50.8852155 55.6194482,53.1000884 56.889214,54.3606409 C59.3512709,56.4460331 61.2819732,59.172663 63.2380435,61.5437348 L63.0584114,61.6396464 C64.2945819,61.9890387 63.9264047,64.0066077 65.3291806,63.9833149 C65.3209532,64.2950276 65.8125418,64.7896575 65.3936288,64.8739227 C66.3212709,65.2192044 66.3582943,67.0113812 67.5903512,67.6115138 C67.5430435,67.5101215 67.473796,67.4820331 67.3291304,67.4272265 C67.6472575,68.6802431 68.7840134,69.1865193 69.1302508,70.5121547 C68.9869565,70.4491271 68.8066388,70.283337 68.6180936,70.3614365 C68.5598161,70.9834917 69.9667057,70.8971713 69.2941137,71.6445967 C69.4545485,71.8782099 69.8151839,71.5582762 69.6965719,71.4246851 C70.8593813,74.0382762 72.9443478,76.2874033 74.2456522,79.3969945 C74.2833612,79.682674 74.2854181,79.9580773 74.2607358,80.1820994 C74.2271405,80.3739227 74.1736622,80.5061436 74.1126421,80.6027403 C73.9892308,80.7938785 73.8281104,80.8322431 73.7074415,80.8514254 C73.4613043,80.889105 73.3708027,80.823337 73.9192977,81.600221 C73.7677759,81.7797127 74.3039298,81.6221436 74.1133278,81.6892818 C74.5226421,82.3120221 73.2590468,82.9203757 73.8322241,83.2814144 C74.3875753,82.9950497 74.2113712,83.5314696 74.5699498,83.4896796 C74.3786622,84.8879337 73.8685619,85.1845746 74.4026589,86.1916464 L74.0852174,86.1368398 C75.0711371,87.304221 74.6158863,88.7524862 75.5922074,89.842453 C75.5736957,93.3535028 75.0704515,96.8624972 73.9590635,100.22968 C72.84699,103.588641 71.0739799,106.770851 68.7517893,109.476928 C63.9092642,114.567779 58.1048161,118.312442 51.6641137,120.058033 C51.5893813,120.047757 51.5173913,120.037481 51.4543144,120.028575 C51.4337458,120.018983 51.3672408,120.026519 51.3912375,120.001856 C51.4090635,119.979249 51.4234615,119.957326 51.4337458,119.936088 C51.4063211,119.899094 51.3802676,119.86347 51.3644983,119.842232 C51.336388,119.812088 51.3096488,119.783315 51.2918227,119.764133 C50.6144314,119.871691 50.2716221,119.91211 49.8821906,120.070365 C49.4900167,120.230674 49.1026421,120.438254 48.4533612,120.803403 C48.4821572,120.654055 48.5815719,120.587602 48.4279933,120.508133 C48.5431773,121.180199 47.2514716,120.918497 47.2617559,121.586453 C44.7661037,122.128354 42.5721237,122.67505 40.0716722,123.00937 C40.4590468,122.88263 40.5838294,122.30853 40.1251505,122.417459 C40.1251505,122.417459 40.0161371,122.540773 39.9071237,122.664773 C39.7981104,122.783293 39.6884114,122.901812 39.6884114,122.901812 L39.588311,122.723691 C39.2825251,122.852486 38.9685117,123.216265 39.322291,123.399182 C38.5461706,123.546475 37.7659365,123.662254 36.9857023,123.754055 C36.2082107,123.823934 35.4327759,123.850652 34.6566555,123.869834 C33.1009866,123.934232 31.5747993,123.782829 30.048612,123.684177 C28.5258528,123.564287 27.0284615,123.33821 25.5283278,123.203249 C24.0336789,123.036773 22.5561706,122.84495 21.0649498,122.783293 C19.6772575,122.405127 17.6711371,122.394851 16.1264381,122.371558 C13.9235452,121.668663 11.8783445,120.891094 9.78652174,120.376597 C7.71046823,119.793591 5.61247492,119.361989 3.30673913,119.256486 C3.30673913,119.256486 4.24192308,117.659558 6.14382943,117.604751" id="Fill-2" sketch:type="MSShapeGroup"></path>
            <path d="M1.57966555,1.35509392 C1.46859532,1.71065193 1.7243311,2.19226519 1.11687291,2.24912707 C1.29307692,1.98125967 1.3362709,1.54075138 1.57966555,1.35509392" id="Fill-3" sketch:type="MSShapeGroup"></path>
            <path d="M9.25585284,13.2289503 C9.33675585,13.168663 9.30316054,13.4618785 9.29561873,13.5331271 C9.15643813,13.4351602 8.84585284,13.5338122 8.8698495,13.3132155 C9.01177258,13.4118674 9.10158863,13.2789613 9.25585284,13.2289503" id="Fill-4" sketch:type="MSShapeGroup"></path>
            <path d="M11.6555184,15.7815691 C11.4100669,15.963116 10.7045652,15.6192044 10.359699,15.3410608 L11.6555184,15.7815691" id="Fill-5" sketch:type="MSShapeGroup"></path>
            <path d="M13.157709,18.9240442 C13.1851338,19.3022099 13.0329264,19.3481105 12.7648495,19.0809282 C12.8553512,18.9466519 13.001388,18.9747403 13.157709,18.9240442" id="Fill-6" sketch:type="MSShapeGroup"></path>
            <path d="M13.7973913,18.5910939 C13.997592,18.774011 13.9715385,18.9946077 13.948913,19.2090387 C14.1189465,19.0165304 13.3839632,18.8918453 13.7973913,18.5910939" id="Fill-7" sketch:type="MSShapeGroup"></path>
            <path d="M18.2758528,24.1265635 C18.4136622,24.2279558 18.851087,24.3060552 18.7317893,24.6554475 C18.7674415,24.3649724 17.8747659,24.3505856 18.2758528,24.1265635" id="Fill-8" sketch:type="MSShapeGroup"></path>
            <path d="M20.9429097,26.0948066 C21.0046154,26.1831823 20.9970736,26.2530608 21.143796,26.279779 C21.1863043,26.5140773 20.886689,26.5264088 20.7488796,26.4318674 L20.9429097,26.0948066" id="Fill-9" sketch:type="MSShapeGroup"></path>
            <path d="M61.8990301,69.2803757 L61.57199,69.0851271 L61.8421237,68.952221 L61.8990301,69.2803757" id="Fill-10" sketch:type="MSShapeGroup"></path>
            <path d="M69.7054849,91.8716685 C69.8487793,92.2196906 69.3948997,92.0628066 69.3441639,92.1100773 C69.3530769,91.8161768 69.6965719,92.264221 69.7054849,91.8716685" id="Fill-11" sketch:type="MSShapeGroup"></path>
            <path d="M66.1272408,104.671072 L66.186204,104.584066 L66.6517391,104.985525 L66.1272408,104.671072" id="Fill-12" sketch:type="MSShapeGroup"></path>
            <path d="M91.4855351,61.4937238 C92.0600836,61.3416354 91.181806,60.9696354 91.8475418,61.2546298 C91.7659532,61.495779 91.6877926,61.677326 91.4855351,61.4937238" id="Fill-13" sketch:type="MSShapeGroup"></path>
            <path d="M105.038846,66.6750055 C106.911957,64.8883094 109.751104,66.1961326 111.923829,65.0910939 C112.183679,65.008884 111.902575,65.951558 112.483294,65.7104088 C114.588829,64.3744972 118.15199,65.058895 120.653127,66.2399779 L120.476237,66.4681105 C120.948629,66.6756906 121.628763,65.9419669 122.142977,66.1241989 C122.126522,66.2845083 121.947575,66.3304088 122.040134,66.5640221 C122.234849,66.0906298 123.004114,66.4633149 123.279732,66.1529724 C123.453194,66.3749392 123.367492,66.7496796 123.587575,67.0017901 L123.982492,66.5112707 C124.511789,65.9645746 125.034231,66.0735028 125.534732,66.3290387 C126.048946,66.5653923 126.529565,66.918895 127.18913,66.7983204 C127.089716,66.8990276 126.949164,66.9558895 126.989615,67.1024972 C127.97005,67.0572818 129.023161,67.3662541 129.952174,67.9780331 C130.884615,68.5857017 131.660736,69.5050829 132.170151,70.5320221 C131.956923,70.5073591 131.590117,70.5710718 131.431054,70.7519337 C132.005602,70.6382099 132.362124,71.2650608 132.542441,71.8638232 C132.252425,72.0323536 132.404632,72.259116 132.590435,72.5749392 C132.744013,72.8798011 132.953813,73.2901657 132.730301,73.6258564 L132.605518,73.5504972 C133.16704,74.1746077 132.13107,74.2396906 132.780351,74.8110497 C132.780351,74.8110497 132.64597,74.8638011 132.511589,74.9165525 C132.375836,74.9651934 132.240084,75.0138343 132.240084,75.0138343 C132.61786,75.2303204 132.459482,75.3899448 132.248311,75.5440884 C132.028227,75.6961768 131.750552,75.837989 131.884247,76.1072265 L132.052224,76.1538122 C132.112559,76.6052818 131.627826,76.6326851 131.625084,77.0238674 L131.522241,77.0163315 C131.376204,77.8863867 130.722124,78.1069834 131.31587,78.3892376 C130.714582,78.409105 131.477676,77.5527514 130.580201,77.6219448 C129.956973,80.3629613 128.118829,82.633326 126.370502,84.7159779 C125.966672,84.7824309 125.777441,84.8790276 125.543645,84.7694144 C125.47097,85.064 124.959498,85.6154917 125.045886,86.0265414 C125.097993,85.9511823 124.677023,85.9326851 124.555669,86.0162652 C124.040084,86.2135691 124.725702,86.9068729 124.134699,87.105547 C124.154582,86.8267182 124.048997,86.6294144 123.82,86.5156906 C123.88102,87.204884 123.391488,87.6008619 123.128211,88.1112486 C123.109013,87.9728619 123.153579,87.8317348 122.990401,87.7029392 C122.98903,88.5401105 122.138177,88.3989834 122.026421,89.0285746 L121.896839,88.6202652 C120.973997,88.8881326 122.280786,89.3608398 121.565,89.6814586 C121.606823,89.4725083 121.458043,89.4094807 121.373027,89.2772597 C121.37097,90.2514475 120.405619,90.8543204 120.062809,91.4887072 C120.056639,91.4222541 119.979164,91.3537459 119.979164,91.3537459 C119.490318,91.9257901 118.771104,92.288884 118.35699,93.057547 C118.020351,93.1274254 117.814666,92.2991602 117.317592,92.9205304 C117.843462,93.4781878 116.510619,94.0303646 117.424548,94.3824972 C117.128361,94.5523978 116.736187,94.7503867 116.308361,95.0299006 C116.203462,95.0881326 116.119816,95.1751381 116.009431,95.2093923 C115.901789,95.2470718 115.799632,95.2868066 115.708445,95.3279116 C115.532241,95.4080663 115.367692,95.5074033 115.294331,95.6074254 C115.462308,95.2251492 114.629967,94.8709613 115.118127,94.6024088 L114.551806,94.3345414 C114.494214,94.0207735 114.984431,94.272884 114.712241,93.959116 C114.475702,94.0872265 113.833963,94.6743425 113.558344,94.6524199 C113.260786,95.2792707 113.146973,96.2657901 112.402391,96.6734144 C112.657441,96.2479779 111.882007,95.9766851 112.082207,95.7540331 L111.533027,97.5544309 C111.286204,97.6935028 111.257408,97.0159558 110.954365,97.3543867 C111.046923,97.5345635 110.928311,97.7167956 110.87209,97.9154696 C110.745251,97.877105 109.839548,98.4957348 109.461773,97.836 C109.242375,97.6017017 109.834749,97.5311381 109.449431,97.3879558 C108.966756,97.571558 109.034632,97.819558 108.552642,98.0072707 L108.508763,97.9168398 C108.150184,97.9284862 107.671622,98.5621878 108.162525,98.8245746 C108.395635,98.7663425 107.923244,98.431337 108.32913,98.5156022 C108.253027,99.0088619 107.724415,99.3294807 107.237625,99.5151381 C107.363779,99.3397569 107.276706,99.158895 107.272592,98.9341878 C106.811171,99.7220331 106.183829,100.177613 105.509866,100.642785 C105.613395,100.984641 105.581171,99.9385193 105.75189,100.082387 C104.640502,99.9172818 103.989849,101.379934 102.97102,100.944221 C103.082776,100.842144 103.193846,101.405282 103.154766,101.312796 C102.677575,101.416928 102.545936,100.915448 102.302542,101.194961 C102.18393,100.913392 101.953562,101.407337 101.669716,101.59368 C101.573043,101.856066 101.54699,101.477901 101.806839,101.360066 C101.46403,101.769746 99.8192308,102.679536 98.6879599,102.528133 C98.7606355,102.717901 98.2505351,103.410519 98.0085117,103.452309 L97.9831438,102.971381 C97.7006689,102.75695 97.2090803,103.222122 97.0733278,102.842586 C96.7147492,103.529724 98.8696488,101.854696 98.3053846,102.46442 C98.0345652,102.130785 97.5525753,103.442033 97.5395485,102.782983 C97.0767559,102.924796 96.7469732,103.567403 96.1854515,103.229657 C96.3362876,103.274188 96.4192475,102.513061 96.0448997,102.62747 C95.3908194,102.854917 95.9050334,102.887116 95.3928763,103.159094 L95.0905184,103.422166 C95.1666221,103.87295 94.4714047,103.493414 94.8327258,103.938718 C94.6702341,103.587271 93.89,104.379912 93.8063545,103.621525 L93.7789298,103.015912 C93.4985117,103.122785 93.4292642,103.736619 93.2489465,104.046276 C93.2002676,103.999691 93.0994816,103.898298 93.0960535,103.800331 C93.2235786,104.708751 92.3843813,103.882541 92.1553846,104.623116 C91.4725084,104.41211 90.552408,104.851934 90.1698328,104.334696 C89.7337793,104.685459 89.336806,105.082807 88.7602007,104.975249 C88.8589298,104.873171 89.0056522,104.82316 89.0097659,104.622431 C88.6313043,104.414166 88.5778261,104.659425 88.2768395,104.837547 C88.3296321,104.69505 87.5151171,104.376486 87.1010033,104.090807 C86.6519231,104.410055 86.8617224,104.884133 86.8438963,105.190365 C86.3207692,104.330586 85.5192809,105.915182 84.8974247,105.134188 C85.0619732,105.012928 85.5707023,104.629282 85.1565886,104.44568 C84.6643144,103.581105 84.3057358,105.146519 83.5632107,104.741635 L83.7688963,105.484265 C83.4315719,105.031425 82.7096154,105.952862 82.7665217,105.186939 C82.528612,105.465768 81.9142977,104.967713 81.9979431,105.695271 C81.3987124,105.406166 80.6671572,105.441105 79.9925084,105.430829 C79.3199164,105.403425 78.7035452,105.322586 78.3943311,104.621746 C78.214699,104.723138 77.8019565,104.549127 77.8513211,104.933459 C78.0988294,105.371912 78.2757191,104.688884 78.3566221,104.979359 C78.2009866,104.98347 78.1488796,105.178718 78.1241973,105.276685 C77.7628763,105.066365 77.4804013,104.980044 77.8904013,104.417591 C77.132107,103.87295 76.9017391,105.551403 75.8657692,105.139669 C75.9603846,104.842343 75.8973077,104.734785 75.5826087,104.723138 L74.9045318,105.11432 C74.2360535,104.855359 74.648796,104.360729 74.729699,103.853768 C74.3567224,103.868155 73.9282107,103.753746 73.6786455,104.092862 L73.3961706,103.37695 C73.5977425,103.900354 73.0300502,103.614674 72.8339632,103.672906 L73.0314214,103.600287 C73.0211371,103.372155 72.584398,103.381061 72.3615719,103.381061 C72.3204348,103.700309 72.7064381,103.948994 72.9141806,104.106564 C72.674214,104.270298 72.4020234,104.134652 72.0838963,104.316199 C72.3026087,103.857193 71.5984783,103.798276 71.3297157,103.66126 C71.0383278,103.46053 70.8175585,103.977768 70.7256856,103.930497 C70.7997324,103.692773 70.2073579,103.702365 70.5823913,103.452994 C70.7167726,103.422166 70.7531104,103.773613 71.010903,103.616729 C70.8586957,103.358453 71.0287291,102.967956 70.4891472,103.100862 C70.0757191,103.202254 70.2299833,104.065459 69.7095987,103.513282 C69.9214548,103.463956 70.023612,103.288575 70.2135284,103.171425 L69.7308528,102.694608 L69.5340803,103.108398 C69.4991137,102.968641 69.5683612,102.954939 69.5553344,102.883006 C69.1967559,103.257746 68.6091806,102.656928 68.2492308,103.094011 C67.9345318,102.989193 67.7747826,102.492508 67.5279599,102.305481 L67.5985786,102.29726 C67.3894649,101.884155 66.873194,101.813591 66.4350836,101.931425 L66.500903,101.852641 C66.3294983,101.738232 65.8948161,101.513525 65.5266388,101.602586 C65.2688462,101.02095 66.324699,100.060464 65.5376087,100.231735 C65.1029264,99.9727735 64.3734281,100.454387 64.3734281,100.818166 C63.821505,99.9707182 62.4317559,99.8748066 62.2946321,98.695779 C62.0663211,98.7314033 62.048495,98.8766409 61.7653344,98.7512707 C60.8733445,97.6551381 59.3005351,96.802895 59.3937793,95.3512044 C59.7886957,95.5731713 59.7852676,95.1127956 59.998495,94.9607072 C59.4678261,94.9216575 60.1239632,94.4099006 59.4774247,94.6928398 C59.1510702,94.9449503 58.9494983,95.0319558 59.0468562,95.4512265 C58.3934615,94.8675359 57.7064716,93.7330387 57.8614214,93.1315359 C57.7976589,93.429547 57.6043144,93.3281547 57.408913,93.2178564 C58.0211706,92.9664309 57.8339967,92.3820552 57.4191973,92.0628066 L57.0270234,92.1703646 L57.2841304,91.7209503 C57.0976421,91.6106519 56.432592,91.8730387 56.6046823,91.2893481 C56.7390635,91.2085083 56.8748161,91.1228729 56.9481773,91.0022983 C56.4421906,90.693326 55.7126923,90.213768 55.8484448,89.6033591 C55.8484448,89.6033591 55.9519732,89.4560663 56.0555017,89.3087735 C56.1652007,89.1628508 56.2748997,89.0162431 56.2748997,89.0162431 C56.1521739,88.8264751 55.7072074,88.5634033 55.655786,88.9915801 C55.731204,88.0304088 55.6448161,87.4672707 56.0774415,87.0795138 C55.2910368,86.4951381 54.8042475,85.6134365 54.5114883,84.6536354 C54.4333278,84.3974144 54.3908194,84.2035359 54.3318562,83.8794917 C54.2646656,83.5081768 54.2379264,83.1163094 54.2105017,82.7381436 C54.1762207,82.3565525 54.1686789,81.9811271 54.1782776,81.616663 C54.1947324,81.2556243 54.1618227,80.8856796 54.2392977,80.5616354 C54.2392977,80.5616354 54.4943478,80.7246851 54.5073746,80.7281105 C55.168311,80.2423867 54.2043311,80.2334807 54.7014047,79.8875138 C54.8419565,80.1827845 55.592709,79.7230939 55.6098495,80.301989 C56.4401338,79.7114475 55.8923244,79.0996685 56.2090803,78.4728177 C55.9567726,78.1563094 56.0788127,79.0393812 55.751087,78.6468287 C55.7133779,78.5803757 56.0705853,78.2583867 56.1871405,78.144663 C56.3441472,77.9816133 56.4586455,77.7801989 56.2570736,77.5534365 C56.5409197,77.574674 56.8055686,77.9487293 56.9406355,78.1665856 L56.9591472,77.6808619 C57.7969732,77.7541657 57.2567057,79.3031381 58.2405686,79.4531713 L58.387291,79.1209061 C59.0825084,79.2558674 58.3632943,80.2800663 59.0756522,79.7347403 C59.0811371,79.2572376 58.615602,78.4522652 58.1960033,78.5522873 C58.5696656,77.8240442 57.3259532,77.359558 57.9128428,76.7080442 C58.3324415,76.747779 57.5378094,77.3074917 58.023913,77.4910939 C58.6505686,77.4808177 58.3324415,76.6779006 58.6917057,76.5018343 C58.2652508,76.6710497 58.0191137,76.0133702 58.1041304,75.7345414 C58.6114883,75.5797127 58.3351839,76.3154917 58.8068896,75.8873149 C58.615602,75.5851934 58.8199164,74.9823204 58.2947324,75.1981215 C57.8641639,74.5116685 58.9090468,74.8514696 58.6923913,74.1910497 C59.2408863,74.4075359 59.1983779,75.5207956 59.874398,75.193326 C59.4020067,74.920663 59.9223913,74.0766409 59.0900502,73.8183646 C59.3917224,73.7176575 59.7173913,73.9800442 59.822291,74.3465635 C60.3248495,74.2828508 59.7598997,72.9873591 60.6141806,73.6128398 L60.3111371,73.1415028 C60.5229933,73.1730166 60.7389632,73.1346519 61.0852007,73.1915138 C61.3258528,72.9489945 61.3114548,71.8583425 61.8805184,72.465326 C61.901087,72.3296796 62.5003177,71.8151823 61.8798328,71.6206188 C61.2792308,71.7192707 61.7543645,72.2954254 61.0248662,71.9590497 C61.7077425,72.1453923 61.4814883,71.4089282 61.5425084,71.0567956 L61.7989298,71.250674 C61.8366388,71.0451492 62.1705351,70.8238674 62.0114716,70.5039337 C62.0416388,70.7252155 62.2411538,70.8327735 62.3933612,70.7950939 L62.1904181,70.3237569 C62.533913,69.6701878 62.8924916,70.8259227 63.2867224,70.2627845 L63.1722241,70.8848398 C63.1982776,70.7498785 63.6713545,70.9218343 63.8009365,70.5943646 C63.5911371,70.1867403 63.4067057,69.6373039 63.2558696,69.3098343 C63.4060201,68.9049503 63.7131773,69.5598895 63.6850669,68.9672928 L63.6823244,69.6969061 C63.7268896,69.8537901 64.4104515,70.0093039 64.7669732,69.6585414 C64.889699,69.3187403 64.8766722,68.5295249 64.3165217,68.6727072 C64.5119231,68.5034917 64.9637458,68.4788287 65.0165385,68.8501436 C65.3648328,68.3692155 64.6483612,68.5411713 64.8588462,68.0157127 C65.2091973,68.1068287 65.9709197,68.0225635 66.5344983,68.1129945 L66.6051171,69.0042873 L66.8718227,68.7946519 C66.9095318,69.5263204 67.3291304,69.0036022 67.5341304,69.637989 C67.7720401,69.5708508 67.8495151,69.2317348 67.9201338,68.9666077 C66.7717224,68.6192707 67.6561706,67.4251713 66.9458696,66.8325746 C67.5437291,66.0413039 68.7277926,68.191779 68.6722575,66.4948287 C68.3986957,66.3989171 68.3685284,65.5733923 68.0346321,66.1303646 C68.5769565,65.8693481 67.8227759,65.1637127 68.6215217,65.0595801 C68.417893,65.6610829 69.6101839,65.4891271 69.3215385,66.3550718 C69.1851003,66.0817238 68.8505184,66.4078232 68.8093813,66.5427845 C69.2118395,66.6832265 69.3126254,67.3045967 69.7932441,66.9647956 C70.0345819,66.687337 70.4274415,66.389326 70.0976589,66.0433591 C69.7857023,65.6268287 69.6760033,66.4091934 69.5621906,65.8453702 C70.0558361,65.2753812 70.600903,65.8583867 70.3287124,64.9239337 C69.9907023,65.248663 69.5909866,64.8759779 69.3935284,64.579337 L69.7185117,64.0847072 L69.8268395,64.4313591 C70.6804348,64.1347182 69.6862876,63.7627182 70.4384114,63.3489282 L71.1521405,63.7127072 C71.287893,64.2922873 69.9872742,64.1806188 70.6413545,64.8889945 C71.1027759,64.6074254 70.9862207,64.0963536 71.5655686,64.041547 C71.5120903,64.1710276 71.3907358,64.2710497 71.3406856,64.4019006 C71.5285452,64.3244862 72.3718562,65.2959337 72.6303344,64.2703646 C72.818194,63.8182099 72.5418896,63.9243978 72.3622575,63.6154254 C73.0540468,63.0687293 73.0951839,62.6172597 73.5566054,62.2733481 C73.6807023,62.6076685 73.9021572,62.4912044 74.0721906,62.4137901 C74.2483946,62.3432265 74.3656355,62.305547 74.2634783,62.7611271 C73.8191973,62.5487514 72.7434615,63.2475359 72.8298495,63.975779 C73.5305518,64.5183646 72.1860535,64.2299448 72.474699,65.0362873 C73.0718729,64.695116 73.4702174,65.4082873 73.8411371,65.8083757 C74.0187124,65.7439779 74.0557358,65.4582983 74.1078428,65.3288177 C73.9172408,64.8554254 73.7115552,64.9890166 73.4318227,64.5533039 C74.1592642,64.2833812 74.6261706,63.6352928 74.7797492,63.0235138 C75.1294147,63.1214807 75.2960201,63.6010387 75.0519398,63.7812155 C75.7862375,63.2331492 76.6864548,62.8447072 77.5160535,62.5878011 C77.0909699,62.3466519 77.2822575,62.1911381 77.5064548,62.0445304 C77.7361371,61.9095691 77.995301,61.7814586 77.6744314,61.5499006 C77.1615886,61.5608619 76.5520736,61.2436685 76.6233779,60.7853481 C76.9133946,60.6956022 76.7701003,61.1135028 76.9572742,61.214895 C77.1094816,60.6428508 77.7985284,61.6266298 77.8417224,60.8326188 C77.1691304,61.4156243 78.1084281,61.8068066 78.2332107,62.454895 C78.6288127,61.8869613 78.4011873,62.8796464 78.9359699,62.6467182 C79.3308863,62.0904309 79.8862375,61.5218122 80.455301,61.1491271 C81.4617893,61.445768 82.433311,60.4160884 83.1586957,60.1872707 C83.6304013,60.3866298 83.5920067,61.1559779 84.0253177,61.1594033 C84.4881104,61.0073149 83.4541973,60.5092597 84.2440301,60.6243536 L84.217291,60.7826077 C84.3852676,60.5510497 85.6077258,60.8887956 85.5734448,59.8447293 L85.5446488,60.660663 C85.6927425,60.6990276 85.7702174,60.495558 85.8600334,60.3893702 C85.9258528,60.6366851 86.1301672,60.8285083 85.9587625,61.040884 C86.51,61.4724862 86.8308696,60.7421878 87.2998328,60.6236685 L86.9035452,60.2318011 C87.6522408,59.7152486 88.2843813,60.0632707 89.0557023,59.7919779 L89.0934114,60.247558 L89.5308361,59.9187182 C89.4711873,60.371558 89.9257525,60.6003757 90.1362375,60.205768 C90.1362375,60.205768 89.8647324,60.5195359 89.5932274,60.8333039 C89.3347492,61.1463867 89.0769565,61.4594696 89.0769565,61.4594696 C88.7101505,61.2333923 89.3573746,60.8696133 89.0913545,60.4496575 C88.8561873,60.0714917 88.1424582,60.3311381 88.1040635,60.7812376 C88.3865385,60.7832928 88.3824247,60.6819006 88.5702843,60.4818564 C88.7581438,61.0936354 88.3412876,61.1415912 88.2137625,61.5937459 C88.3488294,61.5437348 88.5785117,61.6992486 88.5757692,61.495779 C88.3522575,61.8506519 88.0889799,61.9458785 87.6398997,62.0397348 C87.8997492,61.7430939 87.396505,61.6841768 87.477408,61.4855028 C87.5459699,62.0315138 87.1585953,62.3048619 86.5703344,62.2795138 C86.0184114,61.7417238 85.6276087,62.917326 84.9625585,62.9447293 C85.0633445,62.330895 85.2745151,61.7773481 85.6207525,61.462895 C85.132592,61.2840884 85.1689298,61.6053923 84.6787124,61.445768 C84.5936957,61.9109392 84.6327759,62.5734144 84.1898662,62.9714475 L84.0383445,62.5809503 C83.6249164,62.9228066 83.8175753,63.5023867 83.1991472,63.6085746 C82.6657358,63.6928398 82.138495,63.8291713 81.6469064,63.9723536 C81.1553177,64.1155359 80.7185786,64.3183204 80.3305184,64.4505414 L80.1371739,64.0812818 C80.0788963,65.0904088 78.8639799,64.9636685 78.5026589,65.628884 C77.3988127,65.7659006 76.6782274,66.9826077 75.8835953,66.6599337 C75.1739799,67.2785635 74.5212709,67.8595138 73.8349666,68.390453 C73.1733445,68.9645525 72.4897826,69.5085083 71.6670401,69.9914917 L71.5724247,69.316 C71.553913,69.8743425 71.1843645,69.1625414 70.9594816,69.4304088 C71.5655686,69.5989392 70.9485117,70.2031823 70.987592,70.638895 C70.0448662,70.8026298 69.5114548,71.9015028 69.2138963,72.6927735 L68.9225084,72.3927072 C68.8868562,72.936663 68.5714716,73.1942541 68.1936957,73.4278674 C67.817291,73.6607956 67.344214,73.8265856 66.9568395,74.1047293 C66.7600669,74.0519779 66.3665217,73.8841326 66.191689,74.1136354 C66.2801338,74.9556022 66.0525084,75.1049503 65.8043144,75.9160884 C65.3956856,76.2757569 64.7032107,76.8409503 64.1245485,77.0636022 C63.7748829,78.1549392 63.1160033,78.946895 62.4653512,79.7703646 C62.1506522,80.1923757 61.8263545,80.6089061 61.5239967,81.045989 C61.3731605,81.2645304 61.2278094,81.4885525 61.0920569,81.7201105 C61.0248662,81.8365746 60.9597324,81.9544088 60.8973411,82.0749834 C60.8658027,82.1571934 60.8699164,82.2010387 60.8623746,82.2668066 C60.8623746,82.2668066 60.7485619,82.2126851 60.6354348,82.1578785 C60.5188796,82.1071823 60.40301,82.0558011 60.40301,82.0558011 C60.431806,82.2277569 60.4503177,82.3634033 60.4564883,82.476442 C60.4338629,82.5819448 60.498311,82.7052597 60.5394482,82.815558 C60.5764716,82.9251713 60.599097,83.0251934 60.6121237,83.1252155 L60.627893,83.2773039 L60.6518896,83.5999779 C60.7348495,84.609105 60.8424916,85.6154917 61.2984281,86.3300331 L60.4489465,86.3827845 C60.3200502,86.9630497 60.989214,87.4686409 61.5123411,87.1665193 C61.4005853,87.741989 62.3014883,88.2085304 61.7564214,88.7559116 C61.8174415,89.2916464 62.363194,89.1909392 62.6271572,89.5273149 C62.7786789,90.5645304 63.015903,90.8933702 63.645301,91.6051713 L63.5705686,91.3784088 C63.359398,91.3859448 63.0467559,91.5579006 63.1262876,91.792884 C63.4869231,91.9936133 63.6761538,93.0191823 64.2918395,92.1628287 C64.3165217,92.4443978 64.4399331,92.6896575 64.6044816,92.9143646 C64.7690301,93.140442 65.0144816,93.3110276 65.2297659,93.5014807 C65.6548495,93.892663 66.1011873,94.2187624 66.1800334,94.8346519 C66.3109866,94.579116 66.5187291,94.7106519 66.7141304,94.644884 C67.0110033,94.9435801 67.2914214,95.2861215 67.5594983,95.6231823 C67.8220903,95.9636685 68.1594147,96.1959116 68.5762709,96.1897459 C68.6167224,96.3801989 68.1326756,96.4535028 68.4158361,96.6740994 C68.6489465,96.703558 68.6160368,96.3795138 68.9115385,96.3904751 C69.0904849,96.4315801 69.2536622,96.4946077 69.4092977,96.571337 C69.575903,96.6329945 69.7322241,96.7110939 69.881689,96.8022099 C70.1806187,96.9837569 70.4541806,97.2153149 70.7236288,97.4605746 C71.2940635,97.8969724 71.8692977,98.3758453 72.5137793,98.5519116 C74.9011037,98.8403315 77.3384783,99.4507403 79.7292308,99.5199337 L79.6901505,99.7192928 C80.1131773,99.3520884 80.5656856,99.5658343 81.0140803,99.7323094 C81.4583612,99.9070055 81.8985284,100.013193 82.2180268,99.4130608 C82.4106856,99.5980331 82.9502676,99.4788287 82.8165719,99.870011 C83.4411706,99.2918011 84.6643144,100.359845 85.5686455,99.5439116 C85.4802007,99.5329503 85.4342642,99.5788508 85.3410201,99.6761326 C86.3385953,100.015249 87.1202007,99.3445525 88.1781104,99.622011 C88.0869231,99.7281989 87.9079766,99.8124641 87.9031773,100.011823 C88.3508863,100.347514 88.7170067,99.026674 89.0701003,99.9549613 C89.2949833,99.9090608 89.1592308,99.4486851 89.0255351,99.4986961 C91.3155017,99.5582983 93.580786,98.4320221 95.8063043,97.6804862 C97.5868562,97.7990055 96.3095485,99.2315138 97.4291639,98.183337 C97.5834281,98.3347403 97.4106522,97.8044862 97.4805853,97.992884 C97.9104682,97.5975912 98.5501505,98.8245746 98.7674916,98.240884 C98.4630769,97.7072044 98.9114716,97.8579227 98.8237124,97.5078453 C99.935786,97.6167735 100.29505,98.0565967 100.955301,97.3708287 L100.986839,97.6887072 C101.654632,96.5494144 102.869548,96.6590276 103.327542,95.4443757 C104.58291,95.0148287 105.790284,94.4455249 106.997659,93.9378785 C107.598261,93.6748066 108.19612,93.4117348 108.793294,93.1500331 C109.382926,92.8636685 109.970502,92.578674 110.558077,92.2936796 L112.313261,91.4393812 L113.190853,91.0173702 L113.401338,90.9159779 L113.443846,90.8830939 C113.481555,90.8570608 113.4651,90.8556906 113.475385,90.8392486 L113.482241,90.7988287 C113.484298,90.7947182 113.48087,90.7947182 113.486355,90.7878674 L113.55903,90.717989 L113.730435,90.5576796 L114.419482,89.9095912 L115.804431,88.5983425 C119.657609,85.3387182 122.804599,81.459779 125.819264,77.8630939 C127.087659,77.3869613 127.150736,77.2615912 127.381789,76.0928398 C127.479833,76.193547 127.472291,76.2723315 127.619699,76.26 C127.054749,75.9085525 127.906973,75.5112044 127.357107,75.1590718 C128.094833,73.8245304 128.066037,72.5516464 127.890518,72.126895 C127.99199,72.1686851 128.531572,72.1481326 128.461639,72.0104309 C128.456839,72.0022099 128.007759,72.002895 128.013244,72.0104309 L128.188077,71.9330166 C128.062609,71.8843757 127.731455,71.978232 127.55388,72.101547 C127.465435,72.0302983 127.360535,71.9980994 127.257692,71.8898564 C127.187759,71.8412155 127.141823,71.7747624 127.035552,71.7035138 C126.965619,71.6274696 126.839465,71.5466298 126.722224,71.4555138 C126.237492,71.0883094 125.451087,70.6484862 124.5351,70.2785414 C122.696957,69.5201547 120.38505,68.9960663 118.064231,68.9953812 C116.959013,68.6843536 115.349866,68.9385193 114.123294,69.1214365 C110.441522,68.3493481 106.938696,67.9478895 103.217843,69.0522431 C103.217843,69.0522431 103.490719,67.265547 105.038846,66.6750055" id="Fill-14" sketch:type="MSShapeGroup"></path>
            <path d="M90.7759197,61.5985414 C90.6271405,61.2717569 90.1739465,61.1217238 90.4845318,60.6455912 C90.5544649,60.957989 90.800602,61.2950497 90.7759197,61.5985414" id="Fill-15" sketch:type="MSShapeGroup"></path>
            <path d="M78.3134281,61.4471381 C78.3394816,61.545105 78.0933445,61.3943867 78.03301,61.3587624 C78.1646488,61.2744972 78.1831605,60.9559337 78.3689632,61.0669171 C78.2345819,61.1539227 78.3209699,61.288884 78.3134281,61.4471381" id="Fill-16" sketch:type="MSShapeGroup"></path>
            <path d="M75.3433278,62.6816575 C75.2425418,62.3939227 75.7498997,61.8650387 76.1002508,61.6437569 L75.3433278,62.6816575" id="Fill-17" sketch:type="MSShapeGroup"></path>
            <path d="M72.1065217,63.1187403 C71.7472575,63.0399558 71.7362876,62.884442 72.0468729,62.7042652 C72.1524582,62.826895 72.0928094,62.9570608 72.1065217,63.1187403" id="Fill-18" sketch:type="MSShapeGroup"></path>
            <path d="M72.2806689,63.8120442 C72.0694983,63.9476906 71.8692977,63.8627403 71.6725251,63.7819006 C71.8178763,63.9942762 72.0873244,63.3413923 72.2806689,63.8120442" id="Fill-19" sketch:type="MSShapeGroup"></path>
            <path d="M66.4138294,66.8990276 C66.3048161,67.018232 66.1971739,67.4279116 65.8721906,67.2634917 C66.1464381,67.340221 66.2328261,66.4783867 66.4138294,66.8990276" id="Fill-20" sketch:type="MSShapeGroup"></path>
            <path d="M64.3569732,69.1961105 C64.2726421,69.2481768 64.2061371,69.2344751 64.179398,69.3749171 C63.9572575,69.3954696 63.9483445,69.1022541 64.040903,68.9761989 L64.3569732,69.1961105" id="Fill-21" sketch:type="MSShapeGroup"></path>
            <path d="M84.292709,105.251337 L83.9738963,105.408906 L84.0088629,105.11158 L84.292709,105.251337" id="Fill-22" sketch:type="MSShapeGroup"></path>
            <path d="M107.156037,100.176928 C107.388462,99.8912486 107.455652,100.368066 107.519415,100.391359 C107.262308,100.517414 107.494732,100.007028 107.156037,100.176928" id="Fill-23" sketch:type="MSShapeGroup"></path>
            <path d="M117.9799,93.4775028 L117.91408,93.546011 L117.534933,93.0630276 L117.9799,93.4775028" id="Fill-24" sketch:type="MSShapeGroup"></path>
            <path d="M132.238027,77.7706077 C131.624398,78.0473812 132.691221,78.211116 131.871221,78.0898564 C131.909615,77.8350055 131.983662,77.6315359 132.238027,77.7706077" id="Fill-25" sketch:type="MSShapeGroup"></path>
            <path d="M202.843043,86.064221 C201.105686,88.1167293 197.912759,87.2829834 195.81888,88.8381215 C195.561773,88.9717127 195.690669,87.9851934 195.122291,88.3414365 C193.142224,90.0870276 189.359666,90.1144309 186.408763,89.8102541 L186.527375,89.5375912 C185.965167,89.4793591 185.483863,90.4055912 184.901773,90.4172376 C184.865435,90.2603536 185.034783,90.1541657 184.861321,89.966453 C184.816756,90.4693039 183.898712,90.4138122 183.728679,90.8015691 C183.468829,90.6556464 183.416722,90.2747403 183.088997,90.1185414 L182.873027,90.7193591 C182.227174,92.1724199 180.681789,91.0235359 179.584799,91.9141436 C179.620452,91.7778122 179.723294,91.6572376 179.603997,91.5524199 C177.779565,92.6766409 175.302425,93.0465856 173.126957,93.6158895 C173.18592,93.4096796 173.212659,93.0459006 173.050167,92.8479116 C173.030284,93.438453 172.367977,93.6837127 171.791371,93.8817017 C171.437592,93.3281547 170.850702,94.5695249 170.105435,94.3441326 L170.146572,94.2030055 C169.716689,94.8983646 169.333428,93.9556906 169.016672,94.760663 L168.627241,94.3413923 C168.510686,95.2107624 167.825753,94.016663 167.456204,94.5017017 L167.491856,94.6722873 C167.116137,94.9360442 166.854231,94.5469171 166.497023,94.7222983 L166.449716,94.628442 C165.599548,94.9415249 165.03597,94.5284199 165.131957,95.1792486 C164.765151,94.6887293 165.954013,94.851779 165.383579,94.1413481 C162.584197,95.1011492 159.596957,95.3518895 156.683077,95.4895912 C156.335468,95.2470718 156.12087,95.1792486 156.031739,94.9360442 C155.750635,95.0860773 154.94709,95.124442 154.699582,95.4765746 C154.796254,95.4580773 154.495268,95.1525304 154.340318,95.1292376 C153.801421,94.9141215 153.795936,95.8883094 153.201505,95.6300331 C153.425702,95.4402652 153.494264,95.2230939 153.407191,94.9833149 C152.934114,95.5327514 152.265635,95.4430055 151.683545,95.6252376 C151.77199,95.512884 151.911856,95.4450608 151.88306,95.2388508 C151.257776,95.8321326 150.711338,95.1360884 150.156672,95.5142541 L150.360987,95.1299227 C149.451856,94.6839337 150.105936,95.9294144 149.318161,95.669768 C149.505334,95.5471381 149.437458,95.3984751 149.470368,95.2436464 C148.746355,95.934895 147.559548,95.769105 146.825936,95.9561326 C146.869816,95.9047514 146.860217,95.8013039 146.860217,95.8013039 C146.060786,95.8636464 145.236672,95.6224972 144.348796,95.8965304 C144.037525,95.7170387 144.488662,94.9730387 143.645351,95.0867624 C143.641923,95.8499448 142.202809,95.356 142.652575,96.2329061 C141.934047,96.0643757 140.816488,95.6738785 140.314615,95.8951602 C140.661538,95.6327735 140.044482,94.9374144 140.643712,94.9216575 L140.235769,94.4256575 C140.328328,94.1194254 140.684849,94.5681547 140.576522,94.165326 C140.280334,94.1708066 139.392458,94.4009945 139.140151,94.2557569 C138.54709,94.6887293 137.943746,95.4841105 137.029816,95.4532818 C137.488495,95.2162431 136.90092,94.5866519 137.202592,94.496221 L135.750452,95.7711602 C135.443294,95.7649945 135.775819,95.166232 135.312341,95.3039337 C135.303428,95.5067182 135.095,95.6026298 134.935251,95.7451271 C134.837207,95.6670276 133.647659,95.695116 133.66,94.9380994 C133.585953,94.6222762 134.172157,94.8771271 133.893796,94.5510276 C133.348729,94.4516906 133.273997,94.6976354 132.72413,94.6010387 L132.734415,94.5010166 C132.399833,94.3208398 131.598344,94.6024088 131.900702,95.0847072 C132.149582,95.1593812 131.903445,94.6257017 132.231171,94.9127514 C131.879448,95.3025635 131.204799,95.2477569 130.64602,95.1093702 C130.866104,95.0408619 130.892843,94.8415028 131.020368,94.6551602 C130.135234,95.0305856 129.285067,95.0271602 128.363595,94.9572818 C128.24087,95.2929724 128.880552,94.4441547 128.942258,94.6640663 C128.046839,93.8604641 126.492542,94.5784309 125.828177,93.4350276 C126.009866,93.4528398 125.683512,93.9282873 125.716421,93.8330608 C125.601237,93.7659227 125.523077,93.6926188 125.469599,93.6206851 C125.440803,93.5179227 125.453829,93.3891271 125.442174,93.3014365 C125.429147,93.2240221 125.392809,93.181547 125.292709,93.2226519 C125.298194,93.2048398 125.302308,93.1890829 125.302308,93.1746961 C125.31602,93.1246851 125.310535,93.1055028 125.29408,93.1055028 C125.250201,93.0959116 125.174783,93.0986519 125.09388,93.1089282 C124.929331,93.1287956 124.718161,93.1712707 124.538528,93.1520884 C124.279365,93.2932155 124.500134,92.9815028 124.814147,93.0589171 C124.52893,93.0815249 123.853595,93.0780994 123.117241,92.8109171 C122.749749,92.6848619 122.36786,92.5526409 122.024365,92.3443757 C121.68087,92.1210387 121.375084,91.8702983 121.159799,91.6072265 C121.115234,91.6914917 120.840301,91.7579448 120.540686,91.7264309 C120.241756,91.6901215 119.912659,91.5887293 119.789247,91.4729503 L120.188963,91.1913812 C120.163595,90.9892818 119.951739,90.8289724 119.772107,90.6720884 C119.591789,90.5206851 119.46495,90.3158453 119.589732,90.164442 C119.14408,90.0836022 119.686405,90.5706961 120.26301,90.8186961 C120.825903,91.1105414 121.363428,91.313326 120.884866,91.231116 C120.910234,91.0002431 120.561254,90.9598232 120.256154,90.9111823 C119.951739,90.8639116 119.700803,90.817326 119.992876,90.6446851 C119.707659,90.4610829 119.424498,90.2795359 119.144766,90.1000442 C118.869833,89.8952044 118.606555,89.6780331 118.618896,89.2450608 C118.670318,89.4677127 119.438211,89.3265856 119.132425,88.9011492 C118.580502,88.147558 118.7951,88.8052376 118.27403,88.1900331 L117.912023,87.7803536 C117.464314,87.9029834 117.660401,86.873989 117.298395,87.395337 C117.58087,87.2000884 116.791722,85.857326 117.563729,85.9039116 L118.177358,85.9888619 C118.086171,85.6079558 117.539047,85.3647514 117.274398,84.9954917 C117.33199,84.94 117.456087,84.8344972 117.552074,84.8639558 C117.093395,84.7961326 117.122191,84.5220994 117.230518,84.2316243 C117.328562,83.9322431 117.460886,83.6034033 117.172241,83.2663425 C117.457458,82.9018785 117.613094,82.3743646 117.829064,81.9619448 C118.049833,81.5584309 118.282943,81.2193149 118.614097,81.1816354 C118.649749,80.5636906 118.618896,79.8731271 119.159164,79.4476906 C119.158478,79.6032044 119.082375,79.7662541 119.229783,79.9012155 C119.680234,79.7087072 119.530084,79.4997569 119.615786,79.1044641 C119.675435,79.236 120.519431,78.7632928 121.034331,78.632442 C121.141288,78.0377901 120.656555,77.8795359 120.450184,77.6445525 C121.455987,77.8404862 121.009649,76.0805083 122.046304,76.1839558 C122.009967,76.4079779 121.847475,77.053326 122.31301,76.8841105 C123.28796,77.1451271 122.488528,75.7194696 123.351722,75.4707845 L122.688043,75.0748066 C123.254365,75.1508508 123.217341,73.9608619 123.686304,74.5664751 C123.689047,74.1883094 124.518645,74.1218564 123.96398,73.6450387 C125.307107,73.2394696 126.075,71.3308287 127.499716,71.8734144 C127.564164,71.6678895 127.99199,71.4911381 127.688261,71.2513591 C127.202157,71.1150276 127.542224,71.737768 127.282375,71.5870497 C127.394816,71.4705856 127.298829,71.2910939 127.249465,71.2020331 C127.661522,71.0917348 127.932341,70.9464972 128.017358,71.6507624 C128.969682,71.4870276 127.963194,70.1196022 129.027274,69.6886851 C129.165769,69.9620331 129.300836,70.0051934 129.532575,69.7763757 L129.727291,68.9988066 C130.38,68.6809282 130.454047,69.3255912 130.764632,69.7339006 C131.02311,69.4468508 131.414599,69.2029613 131.342609,68.7919116 L132.083077,69.068 C131.545552,68.8672707 132.168779,68.638453 132.248997,68.4349834 L132.170151,68.6391381 C132.34704,68.7795801 132.638428,68.4281326 132.792007,68.2534365 C132.576722,68.0143425 132.125585,68.1540994 131.870535,68.2143867 C131.908244,67.9184309 132.192776,67.7944309 132.270251,67.4285967 C132.461538,67.8978785 133.03403,67.3696796 133.300736,67.2799337 C133.649716,67.1990939 133.396722,66.6982983 133.492023,66.6633591 C133.634632,66.8825856 133.993896,66.4160442 133.953445,66.8640884 C133.896538,66.9942541 133.594181,66.7825635 133.546873,67.0764641 C133.841003,67.1278453 134.05286,67.529989 134.281171,67.010011 C134.455318,66.6174586 133.694281,66.2050387 134.430635,66.1372155 C134.343562,66.3345193 134.41898,66.5229171 134.394983,66.7462541 L135.064147,66.6530829 L134.853662,66.2461436 C134.984615,66.3030055 134.955134,66.3660331 135.019582,66.3996022 C134.93388,65.8905856 135.762793,65.786453 135.611271,65.2466077 C135.860151,65.0458785 136.346254,65.1918011 136.632843,65.0876685 L136.602676,65.150011 C137.05587,65.2027624 137.389766,64.8081547 137.505635,64.3868287 L137.540602,64.4820552 C137.732575,64.414232 138.10898,64.1169061 138.196054,63.7586077 C138.80694,63.809989 139.185401,65.1794696 139.393829,64.4066961 C139.836054,64.149105 139.696873,63.2879558 139.373261,63.1303867 C140.338612,62.9645967 140.904933,61.7910497 142.006037,62.0253481 C142.038946,61.8006409 141.91005,61.7362431 142.106137,61.5142762 C142.756789,61.2813481 143.338194,60.8305635 143.931254,60.4756906 C144.534599,60.1338343 145.148913,59.8865193 145.834532,60.0557348 C145.558227,60.4023867 146.006622,60.4804862 146.12592,60.7134144 C146.245217,60.2016575 146.660017,60.9285304 146.466672,60.2413923 C146.261672,59.8810387 146.206823,59.6844199 145.785853,59.7008619 C146.422793,59.1349834 147.595886,58.6382983 148.163579,58.7992928 C147.87699,58.7170829 147.98806,58.5293702 148.105301,58.3416575 C148.311672,58.9671381 148.905418,58.8150497 149.248913,58.4300331 L149.154983,58.0333702 L149.593094,58.3012376 C149.708963,58.114895 149.459398,57.4455691 150.033261,57.6284862 C150.112793,57.7641326 150.195753,57.9004641 150.316421,57.9751381 C150.630435,57.4811934 151.102826,56.7358232 151.71714,56.866674 L152.319799,57.2708729 C152.505602,57.1297459 152.764766,56.6796464 152.323913,56.6447072 C153.314632,56.6960884 153.889866,56.5624972 154.307408,56.9612155 C154.599482,56.5583867 154.973144,56.2185856 155.392057,55.924 C155.598428,55.7739669 155.823997,55.6438011 156.069448,55.5341878 L156.251823,55.4519779 L156.53704,55.353326 C156.73107,55.2896133 156.931271,55.2238453 157.1301,55.1669834 C157.918562,54.9552928 158.736505,54.890895 159.538679,54.7942983 C159.934281,54.7703204 160.307258,54.816221 160.680234,54.8312928 C161.050468,54.8552707 161.418645,54.8669171 161.73403,54.9587182 L161.51806,55.2320663 C162.062441,55.618453 162.139231,54.8032044 162.528662,55.0909392 C162.158428,55.3177017 162.691839,55.7458785 161.978796,55.9808619 C162.345602,56.1959779 162.665786,56.1946077 163.036706,56.0993812 C163.404883,56.0041547 163.768946,55.8952265 164.087074,55.982232 C164.445652,55.7095691 163.473445,55.9692155 163.923211,55.6157127 C164.019197,55.5821436 164.262592,55.7952044 164.547124,55.9603094 C164.838512,56.1158232 165.119615,56.3090166 165.421288,56.1356906 C165.438428,56.4357569 164.937241,56.6255249 164.652023,56.7330829 C164.652023,56.7330829 165.341756,56.833105 165.332157,56.8536575 C165.302676,57.3099227 164.775435,57.2126409 164.208428,57.2845746 C163.646906,57.329105 163.115552,57.4558453 163.051104,57.9045746 L163.492642,58.0278895 C163.331522,58.5992486 162.017876,58.0929724 162.724749,58.6328177 C163.316438,58.5786961 164.343495,58.3396022 164.223512,57.9093702 C164.69796,58.1457238 165.065452,58.0498122 165.442542,57.9628066 C165.815518,57.8792265 166.198779,57.8203094 166.530619,58.3615249 C166.421605,58.7958674 165.872425,57.5928619 165.576923,58.0607735 C165.56801,58.3855028 165.761355,58.585547 166.02189,58.7527072 C166.242659,58.9438453 166.533361,59.1110055 166.545017,59.3816133 C166.513478,58.7801105 167.276572,58.9602873 167.533679,59.3076243 C167.493913,60.0228508 166.88097,59.1041547 167.103796,59.9872265 C167.491171,60.0070939 167.92311,60.8154917 167.989615,60.0022983 C168.403043,60.0673812 168.417441,60.3448398 168.390702,60.6387403 C168.359849,60.9367514 168.305,61.2436685 168.62107,61.4765967 C168.359849,61.6752707 168.024582,61.4587845 167.731823,61.3573923 C167.435635,61.2518895 167.192926,61.2498343 167.085284,61.7451492 C167.346505,61.6327956 167.54602,61.9095691 167.755134,62.1637348 C167.970418,62.4124199 168.195987,62.6467182 168.605987,62.3356906 C168.434582,62.7844199 168.010184,62.8159337 167.698913,62.5364199 C167.525452,62.8262099 167.72908,63.1619006 167.837408,63.4777238 C167.85592,63.5510276 167.901171,63.6394033 167.874431,63.6907845 C167.85112,63.744221 167.816839,63.7928619 167.766104,63.8346519 C167.663946,63.918232 167.493913,63.9716685 167.203211,63.9744088 L167.618696,64.1943204 C167.330736,64.3087293 167.038662,64.4868508 166.573127,64.6375691 C166.259799,64.9705193 166.257057,66.083779 165.520017,65.7487735 C165.500134,65.8926409 164.754181,66.7181657 165.546756,66.6551381 C166.318763,66.2317569 165.676338,65.8666077 166.647174,65.8241326 C165.740786,66.0022541 166.069883,66.6702099 165.986923,67.142232 L165.65714,67.042895 C165.634515,67.1737459 165.516589,67.3470718 165.430201,67.5272486 C165.387692,67.6176796 165.35204,67.7094807 165.340385,67.7999116 C165.306104,67.8882873 165.288278,67.9739227 165.32393,68.0561326 C165.360268,67.7964862 165.066137,67.754011 164.80903,67.8567735 C164.80903,67.8567735 164.846739,67.9807735 164.885134,68.1040884 C164.919415,68.2308287 164.953696,68.356884 164.953696,68.356884 C164.099415,69.3269613 164.062391,67.9992707 163.183428,68.795337 C163.183428,68.795337 163.30204,68.5973481 163.421338,68.3993591 C163.53995,68.2061657 163.631823,68.010232 163.631823,68.010232 C163.543378,68.1883536 162.897525,68.0855912 162.573913,68.4986961 C162.633562,68.7261436 162.660301,69.0029171 162.669214,69.2776354 C162.691154,69.5427624 162.641789,69.8428287 162.717893,69.9990276 C162.493696,70.3915801 162.285953,69.6969061 162.215334,70.2977238 L162.340803,69.5619448 C162.321605,69.398895 161.638043,69.1680221 161.208846,69.4838453 C161.016873,69.8044641 160.929799,70.6416354 161.511204,70.5272265 C161.293863,70.6950718 160.8249,70.6724641 160.829013,70.2901878 C160.396388,70.7430276 161.15811,70.6409503 160.861237,71.1520221 C160.515686,71.0239116 159.720368,71.0328177 159.154047,70.8862099 L159.219181,69.9757348 L158.911338,70.1627624 C158.986756,69.4167072 158.471856,69.9065414 158.359415,69.2433812 C158.102993,69.2892818 157.969298,69.6256575 157.856171,69.8873591 C158.988127,70.3497901 157.891823,71.474011 158.53699,72.1405967 C157.808863,72.8852818 156.874365,70.5594254 156.70296,72.3036464 C156.969666,72.4235359 156.889448,73.2648177 157.304247,72.7270276 C156.715987,72.9469392 157.392692,73.7258785 156.564465,73.7642431 C156.851739,73.1709613 155.608712,73.2483757 156.019398,72.3927072 C156.122926,72.6811271 156.50893,72.3776354 156.569264,72.2433591 C156.175719,72.0679779 156.157207,71.4274254 155.61694,71.7357127 C155.331037,71.9987845 154.886756,72.2714475 155.180886,72.6482431 C155.446906,73.0949171 155.662191,72.3098122 155.704699,72.8907624 C155.123294,73.4271823 154.640619,72.8030718 154.795569,73.755337 C155.191856,73.4703425 155.549064,73.8670055 155.714983,74.1869392 C155.714983,74.1869392 155.61694,74.3054586 155.518896,74.4232928 C155.41811,74.5383867 155.31801,74.6527956 155.31801,74.6527956 L155.252191,74.2986077 C154.32592,74.4979669 155.309783,74.9740994 154.476756,75.3015691 L153.793194,74.8864088 C153.707492,74.2698343 155.053361,74.5281105 154.4651,73.7560221 C153.942659,73.9814144 153.999565,74.5000221 153.407876,74.5267403 C153.477124,74.3986298 153.610819,74.3034033 153.675953,74.1732376 C153.477809,74.2396906 152.721572,73.2038453 152.345167,74.2342099 C152.105201,74.6829392 152.399331,74.589768 152.550853,74.9138122 C151.788445,75.4303646 151.690401,75.8530608 151.181672,76.1627182 C150.99107,75.4790055 150.211522,76.5449945 150.494682,75.6215028 C150.936221,75.8619669 152.124398,75.2721105 152.109314,74.5219448 C151.447007,73.9327735 152.794933,74.2986077 152.587876,73.4621215 C151.937224,73.7772597 151.603328,73.0312044 151.263261,72.605768 C151.071973,72.6633149 151.00204,72.953105 150.931421,73.0764199 C151.077458,73.5635138 151.308512,73.4470497 151.551221,73.9033149 C150.765502,74.1239116 150.188896,74.7048619 149.990753,75.3385635 C149.641773,75.2282652 149.509448,74.7356906 149.775468,74.5575691 C148.980151,75.111116 148.010686,75.450232 147.119381,75.664663 C147.980518,76.1873812 146.264415,76.2428729 146.897241,76.7128398 C147.416254,76.689547 148.037425,77.0588066 147.932525,77.5047956 C147.627425,77.5787845 147.800886,77.1704751 147.613027,77.0601768 C147.425853,77.6287956 146.775886,76.6381657 146.694983,77.442453 C147.403913,76.8491713 146.467358,76.4518232 146.369314,75.7934586 C145.93189,76.3737238 146.219849,75.3659669 145.6501,75.5995801 C145.207876,76.1579227 144.59699,76.7018785 143.99913,77.086895 C142.971388,76.8354696 141.921706,77.8356906 141.192207,78.1275359 C140.699247,77.9494144 140.72393,77.1745856 140.267993,77.194453 C139.784632,77.3705193 140.882308,77.8165083 140.051338,77.7425193 L140.074649,77.5822099 C139.905987,77.813768 138.60194,77.5596022 138.697241,78.6125746 L138.684214,77.7918453 C138.527207,77.7658122 138.455903,77.9768177 138.368144,78.0905414 C138.28587,77.8480221 138.05893,77.674011 138.228963,77.4458785 C137.621505,77.0649724 137.318462,77.8165083 136.836472,77.9870939 L137.282809,78.3364862 C136.545769,78.9393591 135.851923,78.6529945 135.079231,79.0339006 L134.985301,78.5865414 L134.56913,78.9770387 C134.574615,78.5200884 134.061087,78.3590939 133.895853,78.7845304 L134.863261,77.3773702 C135.280117,77.5438453 134.630151,78.0090166 134.963361,78.384442 C135.252692,78.7180773 135.973278,78.3810166 135.973278,77.9261215 C135.673662,77.9590055 135.686689,78.0590276 135.508428,78.2803094 C135.245151,77.6952486 135.684632,77.5965967 135.781304,77.1293702 C135.640067,77.1965083 135.377475,77.069768 135.4001,77.2718674 C135.607157,76.8909613 135.885518,76.7621657 136.364766,76.6107624 C136.106288,76.9409724 136.654097,76.9361768 136.581421,77.1451271 C136.462809,76.5970608 136.870067,76.292884 137.509749,76.26 C138.130234,76.7498343 138.498411,75.5166851 139.229967,75.4557127 C139.133294,76.0839337 138.91801,76.6333702 138.566973,76.9916685 C139.088729,77.1184088 139.044164,76.8162873 139.570033,76.9423425 C139.646823,76.4723757 139.591288,75.8085304 140.067107,75.3803536 L140.233027,75.7646851 C140.672508,75.3906298 140.46408,74.8007735 141.140786,74.6815691 C142.307709,74.491116 143.421839,74.0464972 144.267207,73.7683536 L144.453696,74.1417238 C144.584649,73.1456133 145.853729,73.2059006 146.308294,72.5790497 C147.519097,72.5146519 148.370635,71.2075138 149.201605,71.613768 C150.043545,71.0581657 150.793612,70.4765304 151.582074,69.9586077 C152.378077,69.4516464 153.180251,68.9542762 154.105836,68.506232 L154.105151,69.2050166 C154.206622,68.6343425 154.48704,69.3893039 154.759916,69.1310276 C154.155201,68.9172818 154.883328,68.3363315 154.914181,67.8923978 C155.949465,67.8458122 156.662508,66.7510497 157.110217,65.9775912 L157.363896,66.3105414 C157.495535,65.7659006 157.858227,65.5137901 158.286054,65.3110055 C158.696054,65.1315138 159.319967,64.9410608 159.529766,64.8718674 C159.696371,64.9664088 160.078946,65.1774144 160.224983,65.0164199 C160.118712,64.677989 160.081689,64.5169945 160.078946,64.3607956 C160.070033,64.2052818 160.100886,64.0593591 160.024783,63.8456133 C160.237324,63.677768 160.787191,63.4619669 161.447441,63.2804199 L161.413161,63.1982099 L161.323344,63.0824309 L161.161538,62.8673149 C161.060753,62.7302983 160.981221,62.6062983 160.909231,62.4864088 C160.77005,62.248 160.669264,62.0232928 160.53694,61.8129724 C160.290117,61.3909613 159.768361,61.1039116 159.108796,61.3293039 C159.108796,61.3293039 159.193127,61.1998232 159.278144,61.0703425 C159.358361,60.9401768 159.437893,60.8106961 159.437893,60.8106961 C158.521906,61.2820331 158.222291,61.3560221 157.775953,61.3786298 L157.62306,61.3930166 L157.55107,61.3991823 L157.510619,61.4032928 L157.413946,61.4183646 C157.156839,61.4526188 156.897676,61.5129061 156.646739,61.5834696 C156.146923,61.7177459 155.683445,61.8794254 155.292642,62.1555138 L155.21311,61.3012155 C154.582341,61.2320221 154.024933,61.9102541 154.360886,62.4261215 C153.729431,62.3850166 153.15214,63.3002873 152.560452,62.7857901 C151.946137,62.8700552 152.021555,63.4236022 151.60607,63.7147624 C150.375385,63.8641105 149.990067,64.1552707 149.01306,64.7499227 L149.293478,64.6827845 C149.331187,64.4642431 149.194064,64.1347182 148.910217,64.2039116 C148.616087,64.5827624 147.382659,64.6841547 148.198545,65.3966409 C146.832793,65.3945856 145.842074,67.084 144.417358,66.9428729 C144.63607,67.1388066 144.389933,67.3224088 144.363194,67.5443757 C143.415669,68.0725746 142.139732,68.1280663 141.601522,68.9529061 C141.382809,68.919337 141.616605,68.4103204 141.214833,68.604884 C141.035886,68.8261657 141.382809,68.919337 141.176438,69.2132376 C140.532642,69.8729724 139.692074,70.200442 138.839849,70.4792707 C137.99791,70.7697459 137.145686,71.0136354 136.486806,71.4808619 C134.434749,73.2908508 131.920585,74.822011 129.939833,76.5497901 L129.835619,76.375779 C129.650502,77.5109613 127.741054,77.1252597 128.007759,78.4522652 C127.730769,78.4502099 127.383846,78.9174365 127.226154,78.5344751 C127.108227,79.3826077 125.492224,79.5326409 125.378411,80.7150939 C125.44903,80.6623425 125.44903,80.5979448 125.447659,80.4636685 C124.494649,80.9123978 124.41786,81.931116 123.606773,82.4791823 C123.58689,82.3538122 123.631455,82.1729503 123.481304,82.0373039 C123.220084,82.0866298 123.263963,82.3894365 123.283161,82.625105 C123.311271,82.8621436 123.290702,83.0320442 122.818311,82.8833812 C122.724381,83.0676685 123.174833,83.2382541 123.209114,83.121105 C122.570803,83.8692155 122.331522,84.8105193 122.47413,85.3770829 C122.627023,85.9532376 122.920468,86.1046409 123.428512,86.4869171 C123.424398,86.6198232 123.464849,86.7410829 123.474448,86.8506961 C123.482676,86.9616796 123.47102,87.0623867 123.447023,87.1521326 C123.399716,87.3302541 123.300987,87.461105 123.218712,87.5515359 C123.058963,87.726232 122.955435,87.7817238 123.601288,87.8022762 C123.577291,88.0043757 123.865251,87.5289282 123.767207,87.7029392 C124.269766,87.6748508 123.781605,89.0107624 124.352726,88.7079558 C124.500819,88.1222099 124.706505,88.5044862 124.874482,88.1852376 C125.529247,88.9401989 125.597809,89.5019669 126.499398,89.3505635 L126.34102,89.6259669 L126.469916,89.5752707 C126.519281,89.5622541 126.622809,89.5704751 126.698913,89.5725304 C126.850435,89.5711602 127.003328,89.5793812 127.157592,89.5985635 C127.306371,89.6218564 127.454465,89.6547403 127.606672,89.6889945 C127.779448,89.6876243 127.93714,89.7068066 128.089348,89.7307845 C128.258696,89.7547624 128.449983,89.7828508 128.626873,89.7951823 C128.982709,89.8219006 129.346087,89.7821657 129.762943,89.5060773 C130.372458,89.6862541 130.97786,89.8623204 131.635368,89.9808398 C132.279164,90.1110055 132.905134,90.2589834 133.57704,90.330232 C134.236605,90.4172376 134.893428,90.503558 135.54888,90.5898785 C136.2201,90.6371492 136.88995,90.6837348 137.557742,90.7303204 C138.87893,90.8577459 140.246739,90.8323978 141.588495,90.8824088 C142.924766,90.9550276 144.300117,90.883779 145.660385,90.9111823 C146.334348,90.9522873 147.004197,91.0022983 147.678846,91.0105193 L149.708278,90.9783204 C151.061689,90.9296796 152.40413,90.941326 153.763027,90.8296575 C156.478763,90.6241326 159.199983,90.5405525 162.013763,90.4645083 C163.402826,91.1461657 163.506355,91.1125967 164.905017,90.6309834 C164.862508,90.7693702 164.775435,90.8084199 164.885819,90.9228287 C164.880334,90.247337 165.892308,90.7542983 165.951271,90.1007293 C168.027324,89.9596022 169.899749,89.4793591 172.014883,89.1758674 C171.691271,89.2957569 171.604197,89.8650608 171.997057,89.7636685 L172.349465,89.2786298 L172.445452,89.454011 C172.702559,89.3163094 172.94801,88.9449945 172.633997,88.7716685 C173.940786,88.4558453 175.254431,88.1914033 176.574933,87.9872486 C177.89612,87.7899448 179.225535,87.6590939 180.556321,87.5412597 C183.221321,87.346011 185.872609,87.0301878 188.445736,86.3930608 C189.73607,86.4005967 191.432291,85.766895 192.735652,85.3435138 C196.880903,85.2674696 200.629181,85.0489282 204.481672,83.4430939 C204.481672,83.4430939 204.408311,85.2571934 202.843043,86.064221" id="Fill-26" sketch:type="MSShapeGroup"></path>
            <path d="M133.00112,77.5232928 C133.217776,77.8178785 133.722391,77.8843315 133.463913,78.4111602 C133.342559,78.1145193 133.02306,77.8274696 133.00112,77.5232928" id="Fill-27" sketch:type="MSShapeGroup"></path>
            <path d="M146.238361,76.8169724 C146.216421,76.7196906 146.462559,76.8731492 146.522207,76.9080884 C146.384398,76.9964641 146.350117,77.3122873 146.163629,77.1971934 C146.306237,77.1129282 146.223278,76.9759116 146.238361,76.8169724" id="Fill-28" sketch:type="MSShapeGroup"></path>
            <path d="M149.388094,75.6715138 C149.470368,75.9722652 148.908846,76.4805967 148.529699,76.6785856 C148.529699,76.6785856 148.746355,76.4292155 148.96301,76.1798453 C149.180351,75.9345856 149.388094,75.6715138 149.388094,75.6715138" id="Fill-29" sketch:type="MSShapeGroup"></path>
            <path d="M152.761338,75.4324199 C153.119231,75.5331271 153.114431,75.6920663 152.780535,75.8558011 C152.68592,75.7249503 152.758595,75.5968398 152.761338,75.4324199" id="Fill-30" sketch:type="MSShapeGroup"></path>
            <path d="M152.654381,74.7192486 C152.884749,74.5925083 153.079465,74.6911602 153.271438,74.7843315 C153.14597,74.5603094 152.803161,75.2077127 152.654381,74.7192486" id="Fill-31" sketch:type="MSShapeGroup"></path>
            <path d="M159.094398,72.1255249 C159.22398,72.0159116 159.396756,71.6123978 159.70597,71.8110718 C159.435836,71.7062541 159.217809,72.5687735 159.094398,72.1255249" id="Fill-32" sketch:type="MSShapeGroup"></path>
            <path d="M161.55714,69.9949171 C161.653127,69.9510718 161.719632,69.9723094 161.771054,69.8332376 C162.005535,69.8359779 161.965084,70.1333039 161.847843,70.250453 L161.55714,69.9949171" id="Fill-33" sketch:type="MSShapeGroup"></path>
            <path d="M122.434365,75.6365746 L122.578344,75.2837569 L122.751806,75.5283315 L122.434365,75.6365746" id="Fill-34" sketch:type="MSShapeGroup"></path>
            <path d="M130.175,95.6005746 C130.562375,95.5060331 130.339548,95.9342099 130.385485,95.9917569 C130.069415,95.9410608 130.592542,95.6642873 130.175,95.6005746" id="Fill-35" sketch:type="MSShapeGroup"></path>
            <path d="M143.748194,95.9451713 L143.646722,95.9499669 L143.708428,95.3381878 L143.748194,95.9451713" id="Fill-36" sketch:type="MSShapeGroup"></path>
        </g>
    </g>
</svg>