<?xml version="1.0" encoding="UTF-8" standalone="no"?>
<svg width="201px" height="41px" viewBox="0 0 201 41" version="1.1" xmlns="http://www.w3.org/2000/svg" xmlns:xlink="http://www.w3.org/1999/xlink" xmlns:sketch="http://www.bohemiancoding.com/sketch/ns">
    <!-- Generator: Sketch 3.3.3 (12081) - http://www.bohemiancoding.com/sketch -->
    <title>Group</title>
    <desc>Created with Sketch.</desc>
    <defs></defs>
    <g id="Page-1" stroke="none" stroke-width="1" fill="none" fill-rule="evenodd" sketch:type="MSPage">
        <g id="Ken.type" sketch:type="MSLayerGroup" transform="translate(-202.000000, -636.000000)" fill="#EDAC1B">
            <g id="Layer_2" transform="translate(12.000000, 132.000000)" sketch:type="MSShapeGroup">
                <g id="Group" transform="translate(103.000000, 25.000000)">
                    <g transform="translate(87.000000, 479.000000)" id="Shape">
                        <g>
                            <path d="M10.3,1.6 C9.3,0.6 7.8,0 6.4,0 L6.3,0 C3.4,0 0.9,2.6 0.9,5.6 L0.9,34.6 C0.9,37.6 3.3,40 6.3,40 C6.6,40 7,40 7.3,39.9 C9.9,39.5 11.9,37.1 11.9,34.4 L11.9,32.4 C11.9,31.5 12.2,30.6 12.9,30 C13.5,29.4 14.3,29.1 15.2,29.1 C15.8,29.1 16.4,29.3 16.9,29.6 L32.7,39 C33.5,39.5 34.5,39.7 35.4,39.7 C37.3,39.7 39,38.7 40,37.1 C40.7,35.9 40.9,34.4 40.6,33 C40.2,31.6 39.4,30.4 38.2,29.7 C38,29.6 18.6,18 13.6,15.1 C12.6,14.5 12,13.4 12,12.2 L12,5.4 C12,4 11.4,2.6 10.3,1.6 L10.3,1.6 Z"></path>
                            <path d="M35.6,0 C32.7,0 30.3,2.4 30.3,5.3 C30.3,8.2 32.7,10.6 35.6,10.6 C38.5,10.6 40.9,8.2 40.9,5.3 C40.9,2.4 38.5,0 35.6,0 L35.6,0 Z"></path>
                        </g>
                        <g transform="translate(161.000000, 0.000000)">
                            <path d="M30.7,38.5 C31.7,39.5 33.1,40.1 34.5,40.1 C37.5,40.1 40,37.5 40,34.4 L40,5.6 C40,2.6 37.5,0 34.6,0 C34.2,0 33.6,0.1 33.2,0.2 C30.8,0.8 29,3.1 29,5.7 L29,7.7 C29,9.6 27.6,11.1 25.7,11.1 C25.1,11.1 24.5,10.9 24,10.6 L8.2,1.2 C7.4,0.7 6.4,0.5 5.5,0.5 C3.6,0.5 1.8,1.5 0.9,3.1 C0.2,4.3 1.33226763e-14,5.8 0.3,7.2 C0.7,8.6 1.5,9.8 2.8,10.5 C3,10.6 22.5,22.2 27.5,25.1 C28.5,25.7 29.1,26.8 29.1,28 L29.1,34.8 C29,36.1 29.6,37.5 30.7,38.5 L30.7,38.5 Z"></path>
                            <path d="M5.3,29.4 C2.4,29.4 0,31.8 0,34.7 C0,37.6 2.4,40 5.3,40 C8.2,40 10.6,37.6 10.6,34.7 C10.6,31.8 8.2,29.4 5.3,29.4 L5.3,29.4 Z"></path>
                        </g>
                        <g transform="translate(80.000000, 0.000000)">
                            <path d="M0,34.7 C0,37.7 2.9,40 5.9,40 L35.1,40 C36.5,40 37.8,39.5 38.9,38.5 C39.9,37.5 40.5,36 40.5,34.5 C40.5,33.4 40,31.5 38.3,30 C37.7,29.5 36.9,29 36.1,29 L14.6,29 C12.7,29 11,27.9 11,26 L11,14 C11,12.1 12.7,11 14.6,11 L35.1,11 C36.6,11 37.9,10.3 38.9,9.3 C40.8,7.4 41,4.7 39.4,1.8 C38.9,0.8 37.8,0 36.6,0 L3.4,0 C1.7,0 2.84217094e-14,1.5 2.84217094e-14,3.2 L2.84217094e-14,34.7 L0,34.7 Z"></path>
                            <path d="M24.7,14.6 C21.8,14.6 19.4,17 19.4,19.9 C19.4,22.8 21.8,25.2 24.7,25.2 C27.6,25.2 30,22.8 30,19.9 C30,17 27.7,14.6 24.7,14.6 L24.7,14.6 Z"></path>
                        </g>
                    </g>
                </g>
            </g>
        </g>
    </g>
</svg>