<?xml version="1.0" encoding="UTF-8" standalone="no"?>
<svg width="500px" height="412px" viewBox="0 0 500 412" version="1.1" xmlns="http://www.w3.org/2000/svg" xmlns:xlink="http://www.w3.org/1999/xlink" xmlns:sketch="http://www.bohemiancoding.com/sketch/ns">
    <!-- Generator: Sketch 3.2.2 (9983) - http://www.bohemiancoding.com/sketch -->
    <title>Group + Group</title>
    <desc>Created with Sketch.</desc>
    <defs></defs>
    <g id="Work" stroke="none" stroke-width="1" fill="none" fill-rule="evenodd" sketch:type="MSPage">
        <g id="Rollins-Desktop" sketch:type="MSArtboardGroup" transform="translate(-830.000000, -3842.000000)" fill="#FFFFFF">
            <g id="Rectangle-42-+-Group-+-Group" sketch:type="MSLayerGroup" transform="translate(720.000000, 3600.000000)">
                <g id="Group-+-Group" transform="translate(110.000000, 242.000000)" sketch:type="MSShapeGroup">
                    <g id="Group" transform="translate(0.000000, 355.000000)">
                        <path d="M59.3622449,0.540661765 C52.3673469,0.540661765 45.7312925,2.29257353 39.7465986,5.41248529 C33.7610544,2.29257353 27.125,0.540661765 20.1309524,0.540661765 C13.5365646,0.540661765 7.26105442,2.09726471 1.54931973,4.89110294 C1.20068027,5.06126471 1.03486395,5.2155 0.862244898,5.46026471 C0.862244898,5.46026471 0.510204082,5.94895588 0.510204082,6.54410294 L0.510204082,54.8231029 C0.510204082,55.2807794 0.786564626,55.8868235 1.20748299,56.1416471 C1.62755102,56.4719118 2.38265306,56.6839853 3.01190476,56.3947941 C8.32482993,54.0326471 14.0952381,52.7325441 20.1309524,52.7325441 C26.0595238,52.7325441 31.7253401,54.0024706 36.9608844,56.2866618 C36.8605442,49.3938529 36.172619,43.1666029 33.3392857,36.6426176 C30.9753401,31.0147059 26.2814626,23.7111618 18.8809524,18.3674118 C18.8809524,18.3674118 25.9268707,24.6927353 31.0833333,36.6183088 C29.6181973,36.7306324 28.1045918,36.6518382 26.5552721,36.3207353 C19.1232993,34.7347941 13.7117347,28.0808824 13.8613946,20.5870588 C13.914966,17.9256618 14.6488095,15.4511912 15.8647959,13.2843529 C18.7780612,11.9431765 22.1522109,11.4335294 25.662415,12.0890294 C32.3452381,13.3371618 37.5544218,18.7706029 38.4642857,25.4152941 C38.9285714,28.8101471 38.2738095,31.9753235 36.8715986,34.6912059 L36.8715986,34.6937206 C38.0663265,37.1011324 39.0484694,39.7742647 39.6692177,42.7340735 C40.4991497,38.3006471 42.2244898,34.2989118 44.6564626,30.7095882 C43.9489796,28.7506324 43.7117347,26.5728971 44.1318027,24.2912206 C45.0909864,19.0815882 49.3894558,14.9507647 54.702381,14.1762353 C57.5493197,13.7613088 60.2414966,14.2910735 62.5272109,15.4788529 C63.3571429,17.1435882 63.8358844,19.0086618 63.8358844,20.9885735 C63.8358844,27.8989853 58.1530612,33.50175 51.1420068,33.50175 C50.2789116,33.50175 49.4081633,33.3919412 48.5714286,33.2117206 C52.3290816,24.8067353 57.9345238,19.0941618 57.9345238,19.0941618 C52.5841837,23.2643824 48.7083333,29.0456912 46.8095238,33.0306618 L46.8103741,33.0323382 C43.6096939,39.0056029 42.4787415,47.3007794 42.3222789,56.3738382 C47.6156463,54.0326471 53.3545918,52.7325441 59.3622449,52.7325441 C65.4693878,52.7325441 71.3069728,54.0611471 76.672619,56.4769412 C77.5637755,56.8776176 78.2738095,56.4819706 78.5433673,56.30175 C78.8129252,56.1206912 79.3044218,55.632 79.3044218,54.8775882 L79.3044218,6.72516176 C79.3044218,6.72516176 79.287415,6.11911765 78.9957483,5.70502941 C78.7482993,5.36470588 78.4897959,5.17358824 78.2848639,5.05791176 C72.4821429,2.15845588 66.087585,0.540661765 59.3622449,0.540661765" id="Fill-1"></path>
                        <path d="M104.419218,37.9469118 L107.093537,37.9469118 L107.093537,21.9223676 L104.419218,21.9223676 L104.419218,18.3732794 L113.509354,18.3732794 C118.892857,18.3732794 122.743197,20.6574706 122.743197,25.3658382 C122.743197,28.3533088 120.889456,30.6375 118.323129,31.6567941 L121.922619,37.9469118 L124.596088,37.9469118 L124.596088,41.496 L119.177721,41.496 L114.471939,32.7112941 C113.973639,32.7456618 113.509354,32.7808676 113.046769,32.7808676 C112.297619,32.7808676 111.620748,32.7808676 111.121599,32.7456618 L111.121599,37.9469118 L114.045068,37.9469118 L114.045068,41.496 L104.419218,41.496 L104.419218,37.9469118 L104.419218,37.9469118 Z M118.572279,25.5075 C118.572279,23.0833235 116.539966,21.9223676 113.295918,21.9223676 L111.121599,21.9223676 L111.121599,29.3373971 C111.54932,29.3726029 112.119898,29.4078088 113.403061,29.4078088 C116.432823,29.4078088 118.572279,27.9316765 118.572279,25.5075 L118.572279,25.5075 Z" id="Fill-2"></path>
                        <path d="M130.263605,35.1002647 C130.798469,37.4909118 132.795068,38.5437353 135.397109,38.5437353 C137.285714,38.5437353 139.246599,37.9469118 141.064626,36.9276176 L140.744048,40.3719265 C139.103741,41.3208088 137.107993,41.7768088 134.826531,41.7768088 C129.728741,41.7768088 126.19983,38.6149853 126.19983,33.8353676 C126.19983,29.4782206 129.30102,25.8235147 134.113946,25.8235147 C139.103741,25.8235147 141.705782,29.127 141.705782,33.2033382 C141.705782,33.8001618 141.635204,34.5738529 141.528061,35.1002647 L130.263605,35.1002647 L130.263605,35.1002647 Z M130.227891,32.4296471 L137.820578,32.4296471 C137.75,30.3214853 136.359694,28.9157647 134.078231,28.9157647 C132.366497,28.9157647 130.655612,29.8998529 130.227891,32.4296471 L130.227891,32.4296471 Z" id="Fill-3"></path>
                        <path d="M143.701531,37.4557059 C143.701531,34.5738529 146.267857,32.8160735 149.97619,32.8160735 C151.579932,32.8160735 153.077381,33.0281471 153.932823,33.2385441 L153.932823,32.0088529 C153.932823,31.0951765 153.718537,30.3918971 153.326531,29.8998529 C152.684524,29.0917941 151.651361,28.7757794 150.261054,28.7757794 C149.583333,28.7757794 149.084184,28.8813971 148.727891,29.0213824 C148.79932,29.2317794 148.870748,29.583 148.870748,29.7950735 C148.870748,30.9543529 147.943878,31.7967794 146.767857,31.7967794 C145.590986,31.7967794 144.69983,30.9895588 144.69983,29.7238235 C144.69983,27.8268971 146.660714,25.8235147 150.903061,25.8235147 C153.576531,25.8235147 155.394558,26.562 156.5,27.8973088 C157.318878,28.8813971 157.711735,30.2158676 157.711735,31.7624118 L157.711735,38.3333382 L160.028912,38.3333382 L160.028912,41.496 L154.003401,41.496 L154.003401,39.8094706 C152.755952,40.8639706 150.866497,41.7768088 148.763605,41.7768088 C146.090136,41.7768088 143.701531,40.3367206 143.701531,37.4557059 L143.701531,37.4557059 Z M153.932823,37.6308971 L153.932823,35.2058824 C153.040816,34.9946471 151.936224,34.8546618 150.723639,34.8546618 C148.835034,34.8546618 147.694728,35.6979265 147.694728,37.1036471 C147.694728,38.3333382 148.620748,39.0014118 150.011905,39.0014118 C151.401361,39.0014118 152.755952,38.4741618 153.932823,37.6308971 L153.932823,37.6308971 Z" id="Fill-4"></path>
                        <path d="M161.560374,33.8705735 C161.560374,29.4078088 164.840136,25.8235147 169.046769,25.8235147 C171.042517,25.8235147 172.504252,26.562 173.396259,27.2988088 L173.396259,19.0061471 L171.042517,19.0061471 L171.042517,15.7730735 L177.281463,15.7730735 L177.281463,38.3333382 L179.598639,38.3333382 L179.598639,41.496 L173.396259,41.496 L173.396259,39.8094706 C172.254252,40.8991765 170.793367,41.7768088 168.796769,41.7768088 C164.662415,41.7768088 161.560374,38.5102059 161.560374,33.8705735 L161.560374,33.8705735 Z M173.396259,36.9276176 L173.396259,30.3214853 C172.362245,29.6182059 171.15051,29.127 169.687925,29.127 C167.513605,29.127 165.553571,30.7783235 165.553571,33.8353676 C165.553571,36.7876324 167.406463,38.4741618 169.687925,38.4741618 C171.15051,38.4741618 172.326531,37.8421324 173.396259,36.9276176 L173.396259,36.9276176 Z" id="Fill-5"></path>
                        <path d="M189.506803,37.9469118 L192.179422,37.9469118 L192.179422,21.9223676 L189.506803,21.9223676 L189.506803,18.3732794 L198.596939,18.3732794 C203.979592,18.3732794 207.829082,20.6574706 207.829082,25.3658382 C207.829082,28.3533088 205.97534,30.6375 203.409014,31.6567941 L207.009354,37.9469118 L209.683673,37.9469118 L209.683673,41.496 L204.264456,41.496 L199.559524,32.7112941 C199.059524,32.7456618 198.596939,32.7808676 198.132653,32.7808676 C197.385204,32.7808676 196.707483,32.7808676 196.208333,32.7456618 L196.208333,37.9469118 L199.130952,37.9469118 L199.130952,41.496 L189.506803,41.496 L189.506803,37.9469118 L189.506803,37.9469118 Z M203.658163,25.5075 C203.658163,23.0833235 201.627551,21.9223676 198.382653,21.9223676 L196.208333,21.9223676 L196.208333,29.3373971 C196.636054,29.3726029 197.206633,29.4078088 198.489796,29.4078088 C201.519558,29.4078088 203.658163,27.9316765 203.658163,25.5075 L203.658163,25.5075 Z" id="Fill-6"></path>
                        <path d="M211.428571,38.3333382 L213.816327,38.3333382 L213.816327,29.3373971 L211.428571,29.3373971 L211.428571,26.1043235 L217.702381,26.1043235 L217.702381,38.3333382 L220.019558,38.3333382 L220.019558,41.496 L211.428571,41.496 L211.428571,38.3333382 L211.428571,38.3333382 Z M212.783163,21.2199265 C212.783163,19.8150441 214.030612,18.6901324 215.420918,18.6901324 C216.811224,18.6901324 217.988095,19.8150441 217.988095,21.2199265 C217.988095,22.6256471 216.739796,23.7497206 215.35034,23.7497206 C213.959184,23.7497206 212.783163,22.6256471 212.783163,21.2199265 L212.783163,21.2199265 Z" id="Fill-7"></path>
                        <path d="M237.878401,41.5312059 C237.878401,43.4289706 237.379252,45.0098824 236.416667,46.17 C235.133503,47.7165441 233.10119,48.5237647 230.570578,48.5237647 C227.861395,48.5237647 225.544218,47.6813382 224.439626,46.5916324 C223.833333,45.9939706 223.583333,45.3267353 223.583333,44.5890882 C223.583333,43.4993824 224.403912,42.4448824 225.687075,42.4448824 C226.89881,42.4448824 227.861395,43.2889853 227.861395,44.4482647 C227.861395,44.6242941 227.82568,44.9051029 227.789966,45.0450882 C228.431122,45.2571618 229.180272,45.4323529 230.107143,45.4323529 C231.497449,45.4323529 232.602891,45.0098824 233.280612,44.0970441 C233.743197,43.4641765 233.992347,42.5857059 233.992347,41.4255882 L233.992347,39.2118088 C232.816327,40.3719265 231.568878,41.1799853 229.50085,41.1799853 C225.544218,41.1799853 222.371599,38.1933529 222.371599,33.6249706 C222.371599,29.2317794 225.615646,25.8235147 229.679422,25.8235147 C231.67517,25.8235147 233.10119,26.5972059 234.135204,27.4756765 L234.135204,26.1043235 L240.195578,26.1043235 L240.195578,29.3373971 L237.878401,29.3373971 L237.878401,41.5312059 L237.878401,41.5312059 Z M226.363946,33.5897647 C226.363946,36.4012059 228.110544,37.9469118 230.49915,37.9469118 C231.818027,37.9469118 232.994048,37.34925 233.992347,36.4364118 L233.992347,30.3214853 C233.065476,29.6182059 231.889456,29.127 230.49915,29.127 C228.110544,29.127 226.363946,30.6727059 226.363946,33.5897647 L226.363946,33.5897647 Z" id="Fill-8"></path>
                        <path d="M241.940476,19.0061471 L241.940476,15.7730735 L248.143707,15.7730735 L248.143707,28.4237206 C249.605442,27.0532059 251.244898,25.8235147 253.454932,25.8235147 C255.130952,25.8235147 256.44983,26.4203382 257.269558,27.4756765 C257.946429,28.3533088 258.303571,29.5477941 258.303571,30.9543529 L258.303571,38.3333382 L260.620748,38.3333382 L260.620748,41.496 L252.278061,41.496 L252.278061,38.3333382 L254.417517,38.3333382 L254.417517,31.9032353 C254.417517,31.0599706 254.238946,30.4623088 253.918367,30.0406765 C253.526361,29.5477941 252.920068,29.3021912 252.171769,29.3021912 C250.817177,29.3021912 249.391156,30.0758824 248.143707,31.0951765 L248.143707,38.3333382 L250.283163,38.3333382 L250.283163,41.496 L241.940476,41.496 L241.940476,38.3333382 L244.257653,38.3333382 L244.257653,19.0061471 L241.940476,19.0061471" id="Fill-9"></path>
                        <path d="M265.07483,39.6694853 C264.717687,39.0366176 264.539966,38.2277206 264.539966,37.2436324 L264.539966,29.3373971 L261.509354,29.3373971 L261.509354,26.1043235 L264.539966,26.1043235 L264.539966,22.87125 L268.390306,21.2199265 L268.390306,26.1043235 L273.130952,26.1043235 L273.130952,29.3373971 L268.390306,29.3373971 L268.390306,36.5068235 C268.390306,36.9980294 268.461735,37.3140441 268.639456,37.6308971 C268.92432,38.1229412 269.495748,38.3685441 270.278912,38.3685441 C271.277211,38.3685441 272.418367,37.9821176 273.345238,37.5604853 L273.02466,40.8639706 C271.954932,41.3912206 270.707483,41.7768088 269.280612,41.7768088 C267.392007,41.7768088 265.858844,41.1447794 265.07483,39.6694853" id="Fill-10"></path>
                        <path d="M286.282313,29.3373971 L283.57398,29.3373971 L284.429422,26.1043235 L287.031463,26.1043235 L287.780612,22.9416618 C288.386054,20.3414559 289.277211,18.6549265 290.454082,17.4948088 C291.914966,16.0538824 293.804422,15.4922647 295.515306,15.4922647 C297.869048,15.4922647 298.938776,16.8627794 298.938776,18.0924706 C298.938776,19.5333971 297.833333,20.4470735 296.54932,20.4470735 C295.443878,20.4470735 294.553571,19.7085882 294.375,18.8309559 C293.947279,18.9709412 293.555272,19.25175 293.341837,19.4629853 C292.664116,20.1310588 292.094388,21.2903382 291.630102,23.2585147 L290.952381,26.1043235 L295.052721,26.1043235 L294.196429,29.3373971 L290.204082,29.3373971 L287.387755,41.496 L283.466837,41.496 L286.282313,29.3373971" id="Fill-11"></path>
                        <path d="M298.579932,29.3373971 L295.727891,29.3373971 L296.584184,26.1043235 L302.680272,26.1043235 L301.681973,30.6022941 C303.5,27.3340147 305.353741,25.8235147 307.207483,25.8235147 C308.526361,25.8235147 309.809524,26.8428088 309.809524,28.3533088 C309.809524,29.6894559 308.704082,30.7783235 307.35034,30.7783235 C306.102041,30.7783235 305.17517,29.8998529 304.997449,29.0213824 C303.856293,29.3726029 302.038265,31.3759853 301.253401,34.5034412 L299.471939,41.496 L295.478741,41.496 L298.579932,29.3373971" id="Fill-12"></path>
                        <path d="M309.844388,34.78425 C309.844388,30.1806618 313.516156,25.8235147 318.685374,25.8235147 C323.391156,25.8235147 326.029762,29.0917941 326.029762,32.8160735 C326.029762,37.4196618 322.357143,41.7768088 317.188776,41.7768088 C312.482143,41.7768088 309.844388,38.5102059 309.844388,34.78425 L309.844388,34.78425 Z M322.072279,32.8160735 C322.072279,30.3214853 320.468537,29.0213824 318.543367,29.0213824 C315.941327,29.0213824 313.801871,31.4807647 313.801871,34.78425 C313.801871,37.2788382 315.405612,38.5789412 317.330782,38.5789412 C319.932823,38.5789412 322.072279,36.1195588 322.072279,32.8160735 L322.072279,32.8160735 Z" id="Fill-13"></path>
                        <path d="M331.302721,29.3373971 L328.45068,29.3373971 L329.306973,26.1043235 L335.403061,26.1043235 L334.618197,29.65425 C335.687925,27.6860735 337.613095,25.8235147 339.608844,25.8235147 C341.818878,25.8235147 343.281463,27.4044265 343.530612,29.65425 C344.885204,27.2988088 346.810374,25.8235147 348.591837,25.8235147 C350.767007,25.8235147 352.585034,27.4044265 352.585034,30.4271029 C352.585034,31.1999559 352.477891,32.0440588 352.193027,32.9921029 L351.052721,37.0332353 C350.945578,37.4557059 350.87415,37.8069265 350.87415,38.1229412 C350.87415,38.8262206 351.159864,39.1766029 351.693878,39.1766029 C352.228741,39.1766029 352.905612,38.7910147 353.690476,36.6468088 L355.258503,37.2436324 C354.332483,40.4423382 352.656463,41.7768088 350.552721,41.7768088 C348.093537,41.7768088 346.917517,40.3367206 346.917517,38.3685441 C346.917517,37.8069265 346.988095,37.2092647 347.166667,36.6116029 L348.271259,32.7112941 C348.44983,32.1488382 348.522109,31.6215882 348.522109,31.1999559 C348.522109,29.7950735 347.594388,29.0565882 346.561224,29.0565882 C345.027211,29.0565882 343.922619,30.2862794 343.317177,32.7808676 L341.106293,41.496 L337.113946,41.496 L339.359694,32.7808676 C339.501701,32.1840441 339.608844,31.5159706 339.608844,31.0951765 C339.608844,29.9350588 338.754252,29.0565882 337.64881,29.0565882 C336.115646,29.0565882 335.010204,30.2862794 334.404762,32.7808676 L332.194728,41.496 L328.201531,41.496 L331.302721,29.3373971" id="Fill-14"></path>
                        <path d="M371.547619,29.3373971 L369.871599,36.0139412 C369.728741,36.5772353 369.621599,37.1388529 369.621599,37.4196618 C369.621599,38.4741618 370.157313,38.8262206 370.762755,38.8262206 C371.582483,38.8262206 372.188776,38.6149853 373.757653,37.5956912 L375.040816,39.3526324 C372.901361,41.3560147 370.940476,41.7768088 369.408163,41.7768088 C367.340136,41.7768088 365.593537,40.6887794 365.593537,38.0877353 C365.593537,37.4909118 365.735544,36.7876324 365.914966,36.0139412 L367.590136,29.3373971 L364.703231,29.3373971 L365.45068,26.1043235 L368.37415,26.1043235 L369.230442,22.7664706 L373.614796,21.2199265 L372.367347,26.1043235 L377.107993,26.1043235 L376.288265,29.3373971 L371.547619,29.3373971" id="Fill-15"></path>
                        <path d="M382.204082,19.0061471 L379.280612,19.0061471 L380.136905,15.7730735 L386.802721,15.7730735 L383.737245,28.9157647 C384.806122,27.2988088 386.625,25.8235147 388.514456,25.8235147 C390.760204,25.8235147 392.684524,27.4044265 392.684524,30.4271029 C392.684524,31.1999559 392.577381,32.0440588 392.292517,32.9921029 L391.152211,37.0332353 C391.045068,37.4557059 390.973639,37.8069265 390.973639,38.1229412 C390.973639,38.8262206 391.258503,39.1766029 391.794218,39.1766029 C392.328231,39.1766029 393.005952,38.7910147 393.789966,36.6468088 L395.358844,37.2436324 C394.431973,40.4423382 392.756803,41.7768088 390.653061,41.7768088 C388.193878,41.7768088 387.017857,40.3367206 387.017857,38.3685441 C387.017857,37.8069265 387.087585,37.2092647 387.267007,36.6116029 L388.443027,32.4648529 C388.585884,32.0088529 388.621599,31.5863824 388.621599,31.1999559 C388.621599,29.8646471 387.80102,29.0565882 386.482143,29.0565882 C384.806122,29.0565882 383.630102,30.1462941 383.060374,32.5704706 L380.956633,41.496 L376.963435,41.496 L382.204082,19.0061471" id="Fill-16"></path>
                        <path d="M400.918367,35.1002647 L400.918367,35.3467059 C400.918367,37.0684412 402.343537,38.5789412 405.301871,38.5789412 C406.870748,38.5789412 408.510204,38.2277206 410.471088,37.2092647 L409.722789,40.7231471 C408.083333,41.496 406.728741,41.7768088 404.411565,41.7768088 C400.596939,41.7768088 397.067177,39.4230441 397.067177,35.1706765 C397.067177,29.9350588 400.846939,25.8235147 405.516156,25.8235147 C409.472789,25.8235147 412.218537,27.9316765 412.218537,31.7624118 C412.218537,32.7456618 412.039116,33.8705735 411.647959,35.1002647 L400.918367,35.1002647 L400.918367,35.1002647 Z M401.345238,32.4296471 L408.332483,32.4296471 C408.439626,32.0440588 408.47449,31.692 408.47449,31.3759853 C408.47449,29.8646471 407.47619,28.9861765 405.587585,28.9861765 C403.626701,28.9861765 402.094388,30.3214853 401.345238,32.4296471 L401.345238,32.4296471 Z" id="Fill-17"></path>
                        <path d="M422.62585,36.5420294 C422.62585,34.8898676 423.62415,33.8001618 425.085034,33.8001618 C426.653061,33.8001618 427.651361,34.9602794 427.651361,36.0843529 C427.651361,36.6468088 427.545068,37.0684412 427.330782,37.4909118 C428.187075,38.0877353 429.505952,38.4741618 431.038265,38.4741618 C433.605442,38.4741618 435.244898,37.34925 435.244898,35.3467059 C435.244898,33.4489412 433.284014,32.5352647 430.931122,31.7272059 C426.581633,30.1806618 423.517007,28.8109853 423.517007,24.5234118 C423.517007,20.8335 426.546769,17.9524853 431.287415,17.9524853 C435.673469,17.9524853 439.058673,20.1662647 439.058673,22.9416618 C439.058673,24.5938235 438.02466,25.5427059 436.670918,25.5427059 C435.031463,25.5427059 434.103741,24.3482206 434.103741,23.1881029 C434.103741,22.6256471 434.210884,22.3800441 434.353741,22.0992353 C433.712585,21.7119706 432.714286,21.3959559 431.252551,21.3959559 C428.934524,21.3959559 427.579932,22.5552353 427.579932,24.2426029 C427.579932,26.1395294 429.540816,26.9827941 431.893707,27.8268971 C436.10034,29.3021912 439.27381,30.7439559 439.27381,35.0298529 C439.27381,39.4230441 435.814626,41.9184706 431.002551,41.9184706 C426.368197,41.9184706 422.62585,39.3526324 422.62585,36.5420294" id="Fill-18"></path>
                        <path d="M444.869048,39.6694853 C444.511905,39.0366176 444.334184,38.2277206 444.334184,37.2436324 L444.334184,29.3373971 L441.303571,29.3373971 L441.303571,26.1043235 L444.334184,26.1043235 L444.334184,22.87125 L448.184524,21.2199265 L448.184524,26.1043235 L452.92517,26.1043235 L452.92517,29.3373971 L448.184524,29.3373971 L448.184524,36.5068235 C448.184524,36.9980294 448.255952,37.3140441 448.433673,37.6308971 C448.718537,38.1229412 449.289966,38.3685441 450.073129,38.3685441 C451.071429,38.3685441 452.212585,37.9821176 453.139456,37.5604853 L452.818878,40.8639706 C451.74915,41.3912206 450.501701,41.7768088 449.07483,41.7768088 C447.186224,41.7768088 445.653061,41.1447794 444.869048,39.6694853" id="Fill-19"></path>
                        <path d="M455.383503,37.4557059 C455.383503,34.5738529 457.94983,32.8160735 461.657313,32.8160735 C463.261905,32.8160735 464.758503,33.0281471 465.614796,33.2385441 L465.614796,32.0088529 C465.614796,31.0951765 465.40051,30.3918971 465.008503,29.8998529 C464.367347,29.0917941 463.333333,28.7757794 461.943027,28.7757794 C461.265306,28.7757794 460.767007,28.8813971 460.409864,29.0213824 C460.481293,29.2317794 460.551871,29.583 460.551871,29.7950735 C460.551871,30.9543529 459.625,31.7967794 458.44983,31.7967794 C457.272109,31.7967794 456.381803,30.9895588 456.381803,29.7238235 C456.381803,27.8268971 458.341837,25.8235147 462.584184,25.8235147 C465.258503,25.8235147 467.07568,26.562 468.181122,27.8973088 C469.00085,28.8813971 469.392857,30.2158676 469.392857,31.7624118 L469.392857,38.3333382 L471.710034,38.3333382 L471.710034,41.496 L465.686224,41.496 L465.686224,39.8094706 C464.437925,40.8639706 462.548469,41.7768088 460.445578,41.7768088 C457.772109,41.7768088 455.383503,40.3367206 455.383503,37.4557059 L455.383503,37.4557059 Z M465.614796,37.6308971 L465.614796,35.2058824 C464.723639,34.9946471 463.618197,34.8546618 462.406463,34.8546618 C460.516156,34.8546618 459.37585,35.6979265 459.37585,37.1036471 C459.37585,38.3333382 460.302721,39.0014118 461.693027,39.0014118 C463.084184,39.0014118 464.437925,38.4741618 465.614796,37.6308971 L465.614796,37.6308971 Z" id="Fill-20"></path>
                        <path d="M487.287415,28.3533088 C487.287415,29.65425 486.253401,30.7439559 484.970238,30.7439559 C483.794218,30.7439559 483.009354,30.0758824 482.688776,29.3726029 C481.583333,29.7598676 480.30017,30.9543529 479.587585,32.2896618 L479.587585,38.3333382 L482.296769,38.3333382 L482.296769,41.496 L473.385204,41.496 L473.385204,38.3333382 L475.701531,38.3333382 L475.701531,29.3373971 L473.385204,29.3373971 L473.385204,26.1043235 L479.444728,26.1043235 L479.444728,29.583 C480.763605,27.5108824 482.403912,25.8235147 484.39966,25.8235147 C486.32483,25.8235147 487.287415,26.9827941 487.287415,28.3533088" id="Fill-21"></path>
                        <path d="M491.670918,39.6694853 C491.314626,39.0366176 491.136054,38.2277206 491.136054,37.2436324 L491.136054,29.3373971 L488.106293,29.3373971 L488.106293,26.1043235 L491.136054,26.1043235 L491.136054,22.87125 L494.986395,21.2199265 L494.986395,26.1043235 L499.727041,26.1043235 L499.727041,29.3373971 L494.986395,29.3373971 L494.986395,36.5068235 C494.986395,36.9980294 495.057823,37.3140441 495.235544,37.6308971 C495.520408,38.1229412 496.091837,38.3685441 496.87585,38.3685441 C497.87415,38.3685441 499.015306,37.9821176 499.941327,37.5604853 L499.620748,40.8639706 C498.55102,41.3912206 497.303571,41.7768088 495.877551,41.7768088 C493.988095,41.7768088 492.455782,41.1447794 491.670918,39.6694853" id="Fill-22"></path>
                    </g>
                    <g id="Group" transform="translate(118.000000, 0.000000)">
                        <path d="M165.452289,0.200555675 C153.575677,0.200555675 142.30725,3.15044314 132.143869,8.40729388 C121.980488,3.15044314 110.713233,0.200555675 98.8366205,0.200555675 C87.6396757,0.200555675 76.9829499,2.82267787 67.2836185,7.52828701 C66.6930105,7.81479512 66.4105967,8.07609051 66.1176363,8.48751615 C66.1176363,8.48751615 65.5199972,9.31151347 65.5199972,10.3131458 L65.5199972,91.6459211 C65.5199972,92.4172009 65.9899056,93.4371698 66.703557,93.866932 C67.4172084,94.4227577 68.699203,94.7803198 69.7679223,94.293256 C78.7899294,90.3130854 88.5876954,88.1241635 98.8366205,88.1241635 C108.902738,88.1241635 118.524728,90.263806 127.414317,94.1110369 C127.2444,82.4994363 126.076074,72.0086555 121.264493,61.0182045 C117.250936,51.5370782 109.281243,39.2332741 96.7144157,30.2311894 C96.7144157,30.2311894 108.678917,40.8869989 117.433744,60.9780934 C114.945924,61.1660427 112.376076,61.0331029 109.745292,60.4761312 C97.125732,57.8035836 87.9361516,46.5953864 88.1904412,33.9706932 C88.2818448,29.4874143 89.5263404,25.3181484 91.5922968,21.6691811 C96.5398113,19.4092052 102.268944,18.5496809 108.228929,19.6544561 C119.577042,21.7574256 128.422101,30.9096406 129.966588,42.1040853 C130.756409,47.8227871 129.644331,53.155276 127.26315,57.7313835 L127.26315,57.7348216 C129.291607,61.7906304 130.959137,66.2933918 132.013795,71.2809249 C133.422348,63.8110855 136.353123,57.0701228 140.482693,51.0236557 C139.280383,47.7242284 138.87727,44.0557786 139.590921,40.2108398 C141.219781,31.4345234 148.519181,24.4758145 157.541188,23.1704836 C162.375034,22.4714038 166.945215,23.3653091 170.826354,25.3662817 C172.236079,28.1694771 173.049337,31.3107519 173.049337,34.6468523 C173.049337,46.2882497 163.399223,55.7269728 151.494486,55.7269728 C150.028513,55.7269728 148.550821,55.5424616 147.129377,55.237617 C153.510054,41.0795323 163.028921,31.4562981 163.028921,31.4562981 C153.942463,38.4814768 147.362573,48.2204604 144.137666,54.9327723 L144.138838,54.9362104 C138.705009,64.9995212 136.784361,78.9719485 136.518353,94.257729 C145.506377,90.3130854 155.252582,88.1241635 165.452289,88.1241635 C175.823086,88.1241635 185.735692,90.3623648 194.846759,94.431926 C196.359607,95.1069391 197.565432,94.4399482 198.02245,94.1362496 C198.48064,93.831405 199.316163,93.0074076 199.316163,91.7364577 L199.316163,10.6191365 C199.316163,10.6191365 199.286867,9.59802158 198.792349,8.90008783 C198.370487,8.32707161 197.931046,8.00389047 197.584181,7.81021099 C187.731338,2.92582079 176.871884,0.200555675 165.452289,0.200555675" id="Fill-1"></path>
                        <path d="M27.5933498,148.380256 L30.8487252,148.380256 L30.8487252,129.024915 L27.5933498,129.024915 L27.5933498,124.737607 L38.661392,124.737607 C45.215501,124.737607 49.9028667,127.497254 49.9028667,133.185012 C49.9028667,136.792723 47.6459001,139.551223 44.520599,140.783207 L48.9032859,148.380256 L52.1586614,148.380256 L52.1586614,152.667564 L45.5623661,152.667564 L39.8332334,142.056449 C39.2262195,142.097707 38.661392,142.14011 38.0977362,142.14011 C37.1860436,142.14011 36.3610673,142.14011 35.7540534,142.097707 L35.7540534,148.380256 L39.3129358,148.380256 L39.3129358,152.667564 L27.5933498,152.667564 L27.5933498,148.380256 L27.5933498,148.380256 Z M44.8252778,133.354625 C44.8252778,130.426512 42.3503487,129.024915 38.4012432,129.024915 L35.7540534,129.024915 L35.7540534,137.981158 C36.274351,138.023561 36.969253,138.065965 38.5313176,138.065965 C42.2202743,138.065965 44.8252778,136.282738 44.8252778,133.354625 L44.8252778,133.354625 Z" id="Fill-2"></path>
                        <path d="M59.0596355,144.942159 C59.7100075,147.829015 62.1404066,149.102257 65.3090657,149.102257 C67.6093904,149.102257 69.9964314,148.380256 72.208868,147.149418 L71.8186448,151.309515 C69.821827,152.455548 67.3925998,153.006789 64.6141638,153.006789 C58.4069198,153.006789 54.1109492,149.187063 54.1109492,143.414498 C54.1109492,138.151917 57.8877941,133.736254 63.7470011,133.736254 C69.821827,133.736254 72.9904862,137.726739 72.9904862,142.650094 C72.9904862,143.372095 72.9049418,144.306111 72.7736956,144.942159 L59.0596355,144.942159 L59.0596355,144.942159 Z M59.0162773,141.716078 L68.2597624,141.716078 C68.174218,139.169594 66.4809072,137.471174 63.7024712,137.471174 C61.6189371,137.471174 59.5354031,138.659609 59.0162773,141.716078 L59.0162773,141.716078 Z" id="Fill-3"></path>
                        <path d="M75.4197135,147.786612 C75.4197135,144.306111 78.5450145,142.183659 83.0589477,142.183659 C85.0124073,142.183659 86.8346207,142.439224 87.8763877,142.692497 L87.8763877,141.207239 C87.8763877,140.10361 87.6150671,139.2544 87.1381276,138.659609 C86.3565094,137.684336 85.0991236,137.302707 83.4058127,137.302707 C82.5808364,137.302707 81.9726507,137.429917 81.5390693,137.599529 C81.6257856,137.853949 81.7125019,138.277981 81.7125019,138.533546 C81.7125019,139.933997 80.5851904,140.951674 79.1532002,140.951674 C77.7200382,140.951674 76.634913,139.976401 76.634913,138.448739 C76.634913,136.156675 79.021954,133.736254 84.1874309,133.736254 C87.4428064,133.736254 89.655243,134.627867 91.0016888,136.241481 C91.9989258,137.429917 92.4770371,139.042384 92.4770371,140.910417 L92.4770371,148.847838 L95.2976594,148.847838 L95.2976594,152.667564 L87.963104,152.667564 L87.963104,150.629918 C86.4432257,151.90316 84.1440728,153.006789 81.5824275,153.006789 C78.3282239,153.006789 75.4197135,151.267112 75.4197135,147.786612 L75.4197135,147.786612 Z M87.8763877,147.998628 L87.8763877,145.070515 C86.7912626,144.81495 85.4459886,144.645337 83.9694684,144.645337 C81.6691437,144.645337 80.2816835,145.66416 80.2816835,147.361434 C80.2816835,148.847838 81.4089949,149.653498 83.1023058,149.653498 C84.7944448,149.653498 86.4432257,149.01745 87.8763877,147.998628 L87.8763877,147.998628 Z" id="Fill-4"></path>
                        <path d="M97.1632309,143.456901 C97.1632309,138.065965 101.155695,133.736254 106.276642,133.736254 C108.708213,133.736254 110.487068,134.627867 111.572193,135.519481 L111.572193,125.502011 L108.708213,125.502011 L108.708213,121.596333 L116.302917,121.596333 L116.302917,148.847838 L119.124711,148.847838 L119.124711,152.667564 L111.572193,152.667564 L111.572193,150.629918 C110.183561,151.945563 108.404706,153.006789 105.973135,153.006789 C100.938904,153.006789 97.1632309,149.059854 97.1632309,143.456901 L97.1632309,143.456901 Z M111.572193,147.149418 L111.572193,139.169594 C110.313635,138.320384 108.838287,137.726739 107.05826,137.726739 C104.41107,137.726739 102.024029,139.721981 102.024029,143.414498 C102.024029,146.979805 104.280996,149.01745 107.05826,149.01745 C108.838287,149.01745 110.270277,148.254193 111.572193,147.149418 L111.572193,147.149418 Z" id="Fill-5"></path>
                        <path d="M131.187646,148.380256 L134.44185,148.380256 L134.44185,129.024915 L131.187646,129.024915 L131.187646,124.737607 L142.254517,124.737607 C148.807454,124.737607 153.49482,127.497254 153.49482,133.185012 C153.49482,136.792723 151.239025,139.551223 148.113724,140.783207 L152.497583,148.380256 L155.752958,148.380256 L155.752958,152.667564 L149.155491,152.667564 L143.426358,142.056449 C142.818172,142.097707 142.254517,142.14011 141.689689,142.14011 C140.779168,142.14011 139.954192,142.14011 139.346006,142.097707 L139.346006,148.380256 L142.904889,148.380256 L142.904889,152.667564 L131.187646,152.667564 L131.187646,148.380256 L131.187646,148.380256 Z M148.417231,133.354625 C148.417231,130.426512 145.944645,129.024915 141.993196,129.024915 L139.346006,129.024915 L139.346006,137.981158 C139.867476,138.023561 140.561206,138.065965 142.124442,138.065965 C145.813399,138.065965 148.417231,136.282738 148.417231,133.354625 L148.417231,133.354625 Z" id="Fill-6"></path>
                        <path d="M157.877506,148.847838 L160.784845,148.847838 L160.784845,137.981158 L157.877506,137.981158 L157.877506,134.076626 L165.515569,134.076626 L165.515569,148.847838 L168.337363,148.847838 L168.337363,152.667564 L157.877506,152.667564 L157.877506,148.847838 L157.877506,148.847838 Z M159.527459,128.175705 C159.527459,126.478431 161.046166,125.120382 162.738305,125.120382 C164.430444,125.120382 165.863606,126.478431 165.863606,128.175705 C165.863606,129.874125 164.343727,131.232173 162.651588,131.232173 C160.958278,131.232173 159.527459,129.874125 159.527459,128.175705 L159.527459,128.175705 Z" id="Fill-7"></path>
                        <path d="M190.079709,152.709967 C190.079709,155.002032 189.472695,156.911322 188.300853,158.312919 C186.738789,160.180952 184.26386,161.156226 181.183089,161.156226 C177.884355,161.156226 175.062561,160.138549 173.718459,158.821758 C172.980199,158.100903 172.67552,157.294097 172.67552,156.403629 C172.67552,155.086838 173.675101,153.813596 175.237165,153.813596 C176.712514,153.813596 177.884355,154.832419 177.884355,156.232871 C177.884355,156.446033 177.840997,156.785258 177.797639,156.954871 C178.578085,157.210436 179.489778,157.421306 180.618261,157.421306 C182.311572,157.421306 183.656846,156.911322 184.481822,155.808839 C185.045478,155.044435 185.348985,153.983209 185.348985,152.582757 L185.348985,149.907918 C183.916995,151.309515 182.398288,152.285935 179.881173,152.285935 C175.062561,152.285935 171.200172,148.678225 171.200172,143.160079 C171.200172,137.853949 175.150449,133.736254 180.097963,133.736254 C182.528362,133.736254 184.26386,134.671417 185.523589,135.731497 L185.523589,134.076626 L192.901503,134.076626 L192.901503,137.981158 L190.079709,137.981158 L190.079709,152.709967 L190.079709,152.709967 Z M176.062142,143.117676 C176.062142,146.51337 178.187862,148.380256 181.096372,148.380256 C182.701795,148.380256 184.133785,147.659402 185.348985,146.555773 L185.348985,139.169594 C184.220501,138.320384 182.788511,137.726739 181.096372,137.726739 C178.187862,137.726739 176.062142,139.594772 176.062142,143.117676 L176.062142,143.117676 Z" id="Fill-8"></path>
                        <path d="M195.026051,125.502011 L195.026051,121.596333 L202.577397,121.596333 L202.577397,136.877529 C204.357424,135.222658 206.354242,133.736254 209.04479,133.736254 C211.084966,133.736254 212.691561,134.458255 213.688798,135.731497 C214.513774,136.792723 214.947355,138.235577 214.947355,139.933997 L214.947355,148.847838 L217.769149,148.847838 L217.769149,152.667564 L207.611628,152.667564 L207.611628,148.847838 L210.216631,148.847838 L210.216631,141.08003 C210.216631,140.061207 209.998669,139.340353 209.608446,138.830368 C209.132678,138.235577 208.393246,137.938755 207.482725,137.938755 C205.832773,137.938755 204.096104,138.872771 202.577397,140.10361 L202.577397,148.847838 L205.182401,148.847838 L205.182401,152.667564 L195.026051,152.667564 L195.026051,148.847838 L197.846673,148.847838 L197.846673,125.502011 L195.026051,125.502011" id="Fill-9"></path>
                        <path d="M223.19126,150.460305 C222.757678,149.697048 222.540888,148.719482 222.540888,147.531046 L222.540888,137.981158 L218.850759,137.981158 L218.850759,134.076626 L222.540888,134.076626 L222.540888,130.170947 L227.228253,128.175705 L227.228253,134.076626 L232.999572,134.076626 L232.999572,137.981158 L227.228253,137.981158 L227.228253,146.640579 C227.228253,147.234224 227.31497,147.615853 227.53176,147.998628 C227.878625,148.593418 228.573527,148.890241 229.528578,148.890241 C230.743777,148.890241 232.13241,148.42266 233.260893,147.912675 L232.87067,151.90316 C231.568754,152.540354 230.048876,153.006789 228.313378,153.006789 C226.013054,153.006789 224.14631,152.242386 223.19126,150.460305" id="Fill-10"></path>
                        <path d="M4.06746155,182.535461 L0.768727968,182.535461 L1.81049499,178.630928 L4.97915417,178.630928 L5.89084679,174.811202 C6.62793504,171.669927 7.71306019,169.632282 9.14622224,168.23183 C10.9250775,166.491007 13.2254022,165.812556 15.3089362,165.812556 C18.1729167,165.812556 19.4760043,167.467426 19.4760043,168.952685 C19.4760043,170.693508 18.1295585,171.797137 16.5674939,171.797137 C15.2210481,171.797137 14.1370948,170.905524 13.9203042,169.844298 C13.3988347,170.013911 12.9218953,170.353136 12.6617465,170.608701 C11.8367701,171.415508 11.14304,172.81596 10.5782125,175.192831 L9.7532361,178.630928 L14.7452805,178.630928 L13.7023417,182.535461 L8.84154348,182.535461 L5.4127355,197.221866 L0.638653571,197.221866 L4.06746155,182.535461" id="Fill-11"></path>
                        <path d="M19.0389075,182.535461 L15.5679132,182.535461 L16.6096802,178.630928 L24.0309519,178.630928 L22.8157523,184.064268 C25.0293608,180.116186 27.2863273,178.291703 29.5432939,178.291703 C31.1487167,178.291703 32.7119531,179.522542 32.7119531,181.347025 C32.7119531,182.960639 31.3655073,184.276284 29.7167264,184.276284 C28.1968481,184.276284 27.0683648,183.215058 26.852746,182.153832 C25.4629421,182.577864 23.2493337,184.998285 22.2942829,188.775607 L20.1252045,197.221866 L15.2644063,197.221866 L19.0389075,182.535461" id="Fill-12"></path>
                        <path d="M32.7541394,189.114833 C32.7541394,183.554284 37.2247144,178.291703 43.5175028,178.291703 C49.2466355,178.291703 52.4586528,182.238638 52.4586528,186.737962 C52.4586528,192.298511 47.9880778,197.561092 41.6952894,197.561092 C35.9649849,197.561092 32.7541394,193.615302 32.7541394,189.114833 L32.7541394,189.114833 Z M47.6412127,186.737962 C47.6412127,183.723896 45.6877531,182.153832 43.3452421,182.153832 C40.1765829,182.153832 37.5715794,185.124348 37.5715794,189.114833 C37.5715794,192.128898 39.5250391,193.698963 41.8687219,193.698963 C45.0362093,193.698963 47.6412127,190.728447 47.6412127,186.737962 L47.6412127,186.737962 Z" id="Fill-13"></path>
                        <path d="M58.8791719,182.535461 L55.4070058,182.535461 L56.4499446,178.630928 L63.8712163,178.630928 L62.9161656,182.918236 C64.2180814,180.540218 66.5617642,178.291703 68.9921633,178.291703 C71.6827112,178.291703 73.4627383,180.200993 73.7662452,182.918236 C75.4161979,180.073783 77.7598808,178.291703 79.9289592,178.291703 C82.5773208,178.291703 84.7909293,180.200993 84.7909293,183.852252 C84.7909293,184.785123 84.659683,185.805091 84.312818,186.951124 L82.9241859,191.832076 C82.7941115,192.340914 82.7073952,192.766092 82.7073952,193.147721 C82.7073952,193.996931 83.0554321,194.419817 83.7058041,194.419817 C84.3561761,194.419817 85.1811525,193.954528 86.1362032,191.364495 L88.0463047,192.085349 C86.9178214,195.94977 84.8776455,197.561092 82.3160002,197.561092 C79.3219454,197.561092 77.8899552,195.821415 77.8899552,193.444544 C77.8899552,192.766092 77.9766714,192.044092 78.1934621,191.322091 L79.538736,186.610752 C79.7566985,185.931155 79.8434148,185.295107 79.8434148,184.785123 C79.8434148,183.087848 78.7137597,182.196235 77.4563738,182.196235 C75.5896305,182.196235 74.2443565,183.681493 73.5072683,186.695559 L70.8155485,197.221866 L65.9547504,197.221866 L68.6886564,186.695559 C68.8620889,185.973558 68.9921633,185.166751 68.9921633,184.659059 C68.9921633,183.257461 67.9515681,182.196235 66.6051223,182.196235 C64.7395508,182.196235 63.393105,183.681493 62.6560168,186.695559 L59.9654689,197.221866 L55.1034989,197.221866 L58.8791719,182.535461" id="Fill-14"></path>
                        <path d="M107.877377,182.535461 L105.837201,190.600091 C105.662597,191.280834 105.532522,191.959285 105.532522,192.298511 C105.532522,193.572899 106.184066,193.996931 106.922326,193.996931 C107.919563,193.996931 108.658995,193.741366 110.567925,192.510527 L112.129989,194.632979 C109.526158,197.052254 107.137945,197.561092 105.272374,197.561092 C102.755258,197.561092 100.628366,196.246593 100.628366,193.105318 C100.628366,192.383317 100.801799,191.534107 101.019761,190.600091 L103.059937,182.535461 L99.5444127,182.535461 L100.454933,178.630928 L104.013816,178.630928 L105.055583,174.599186 L110.39332,172.730007 L108.874614,178.630928 L114.647105,178.630928 L113.649868,182.535461 L107.877377,182.535461" id="Fill-15"></path>
                        <path d="M120.852005,170.056314 L117.293123,170.056314 L118.33489,166.151781 L126.451063,166.151781 L122.718749,182.026622 C124.020664,180.073783 126.234273,178.291703 128.534597,178.291703 C131.268503,178.291703 133.612186,180.200993 133.612186,183.852252 C133.612186,184.785123 133.482112,185.805091 133.134075,186.951124 L131.746615,191.832076 C131.615369,192.340914 131.528652,192.766092 131.528652,193.147721 C131.528652,193.996931 131.875517,194.419817 132.527061,194.419817 C133.178605,194.419817 134.002409,193.954528 134.958632,191.364495 L136.867562,192.085349 C135.739078,195.94977 133.698903,197.561092 131.138429,197.561092 C128.143202,197.561092 126.712384,195.821415 126.712384,193.444544 C126.712384,192.766092 126.797928,192.044092 127.015891,191.322091 L128.447881,186.312784 C128.621314,185.762688 128.664672,185.252704 128.664672,184.785123 C128.664672,183.172655 127.666263,182.196235 126.059668,182.196235 C124.020664,182.196235 122.588674,183.513027 121.893772,186.441139 L119.333299,197.221866 L114.471329,197.221866 L120.852005,170.056314" id="Fill-16"></path>
                        <path d="M143.636118,189.496462 L143.636118,189.793284 C143.636118,191.874479 145.371615,193.698963 148.973855,193.698963 C150.883957,193.698963 152.879603,193.273785 155.266644,192.044092 L154.356123,196.288996 C152.360477,197.221866 150.710524,197.561092 147.88873,197.561092 C143.245895,197.561092 138.94758,194.718932 138.94758,189.582414 C138.94758,183.257461 143.549401,178.291703 149.234004,178.291703 C154.051444,178.291703 157.394708,180.838187 157.394708,185.46472 C157.394708,186.653155 157.176745,188.011204 156.699806,189.496462 L143.636118,189.496462 L143.636118,189.496462 Z M144.156415,186.270381 L152.663984,186.270381 C152.794058,185.805091 152.836245,185.379913 152.836245,184.998285 C152.836245,183.172655 151.621045,182.111429 149.32072,182.111429 C146.933679,182.111429 145.068108,183.723896 144.156415,186.270381 L144.156415,186.270381 Z" id="Fill-17"></path>
                        <path d="M170.064657,191.237285 C170.064657,189.243189 171.281029,187.926397 173.059884,187.926397 C174.968814,187.926397 176.184013,189.327995 176.184013,190.686043 C176.184013,191.364495 176.055111,191.874479 175.79379,192.383317 C176.835557,193.105318 178.442151,193.572899 180.307723,193.572899 C183.433024,193.572899 185.42867,192.213705 185.42867,189.793284 C185.42867,187.502365 183.041629,186.398736 180.177649,185.422317 C174.882097,183.554284 171.149782,181.899413 171.149782,176.720492 C171.149782,172.264718 174.839911,168.784218 180.61123,168.784218 C185.950139,168.784218 190.072678,171.457911 190.072678,174.811202 C190.072678,176.806445 188.81412,177.952477 187.165339,177.952477 C185.169693,177.952477 184.040038,176.509622 184.040038,175.108025 C184.040038,174.428427 184.170112,174.131605 184.344717,173.792379 C183.563098,173.325944 182.347899,172.943169 180.567872,172.943169 C177.746078,172.943169 176.097297,174.343621 176.097297,176.381267 C176.097297,178.673332 178.484338,179.692154 181.34949,180.710977 C186.470437,182.493058 190.333998,184.233881 190.333998,189.411655 C190.333998,194.718932 186.123572,197.731851 180.264365,197.731851 C174.621948,197.731851 170.064657,194.632979 170.064657,191.237285" id="Fill-18"></path>
                        <path d="M197.145912,195.015754 C196.712331,194.25135 196.49554,193.273785 196.49554,192.085349 L196.49554,182.535461 L192.805412,182.535461 L192.805412,178.630928 L196.49554,178.630928 L196.49554,174.72525 L201.182906,172.730007 L201.182906,178.630928 L206.954225,178.630928 L206.954225,182.535461 L201.182906,182.535461 L201.182906,191.194882 C201.182906,191.788527 201.269622,192.171301 201.486413,192.55293 C201.833278,193.147721 202.52818,193.444544 203.483231,193.444544 C204.69843,193.444544 206.087062,192.976962 207.215546,192.468124 L206.825322,196.458609 C205.522235,197.095803 204.003528,197.561092 202.266859,197.561092 C199.967706,197.561092 198.100963,196.797834 197.145912,195.015754" id="Fill-19"></path>
                        <path d="M209.947108,192.340914 C209.947108,188.860414 213.072409,186.737962 217.586342,186.737962 C219.539802,186.737962 221.362015,186.993527 222.404954,187.247946 L222.404954,185.762688 C222.404954,184.659059 222.143633,183.809849 221.666694,183.215058 C220.885076,182.238638 219.626518,181.85701 217.933207,181.85701 C217.109403,181.85701 216.502389,181.984219 216.067636,182.153832 C216.154352,182.408251 216.241068,182.832283 216.241068,183.087848 C216.241068,184.4883 215.112585,185.507123 213.680595,185.507123 C212.247433,185.507123 211.163479,184.530703 211.163479,183.003042 C211.163479,180.710977 213.55052,178.291703 218.714825,178.291703 C221.970201,178.291703 224.183809,179.183316 225.529083,180.795784 C226.527492,181.984219 227.004432,183.596687 227.004432,185.46472 L227.004432,193.40214 L229.826226,193.40214 L229.826226,197.221866 L222.49167,197.221866 L222.49167,195.184221 C220.971792,196.458609 218.671467,197.561092 216.110994,197.561092 C212.855618,197.561092 209.947108,195.821415 209.947108,192.340914 L209.947108,192.340914 Z M222.404954,192.55293 L222.404954,189.624817 C221.319829,189.369252 219.973383,189.199639 218.498035,189.199639 C216.19771,189.199639 214.809078,190.218462 214.809078,191.916882 C214.809078,193.40214 215.937561,194.208947 217.6297,194.208947 C219.323011,194.208947 220.971792,193.572899 222.404954,192.55293 L222.404954,192.55293 Z" id="Fill-20"></path>
                        <path d="M248.791307,181.347025 C248.791307,182.918236 247.532749,184.233881 245.969513,184.233881 C244.537523,184.233881 243.582472,183.427074 243.192249,182.577864 C241.845803,183.045445 240.283738,184.4883 239.416576,186.101914 L239.416576,193.40214 L242.714138,193.40214 L242.714138,197.221866 L231.86523,197.221866 L231.86523,193.40214 L234.68468,193.40214 L234.68468,182.535461 L231.86523,182.535461 L231.86523,178.630928 L239.243143,178.630928 L239.243143,182.832283 C240.848566,180.329348 242.845384,178.291703 245.275783,178.291703 C247.619466,178.291703 248.791307,179.692154 248.791307,181.347025" id="Fill-21"></path>
                        <path d="M254.127873,195.015754 C253.694292,194.25135 253.477501,193.273785 253.477501,192.085349 L253.477501,182.535461 L249.787372,182.535461 L249.787372,178.630928 L253.477501,178.630928 L253.477501,174.72525 L258.164867,172.730007 L258.164867,178.630928 L263.936186,178.630928 L263.936186,182.535461 L258.164867,182.535461 L258.164867,191.194882 C258.164867,191.788527 258.251583,192.171301 258.468374,192.55293 C258.815239,193.147721 259.510141,193.444544 260.464019,193.444544 C261.680391,193.444544 263.069023,192.976962 264.197506,192.468124 L263.807283,196.458609 C262.504195,197.095803 260.985489,197.561092 259.24882,197.561092 C256.949667,197.561092 255.082924,196.797834 254.127873,195.015754" id="Fill-22"></path>
                    </g>
                </g>
            </g>
        </g>
    </g>
</svg>